{
.appVersion = "3134";
.formatVersion = 3;
DisplayStrings = (
"O/debug H


/debug H/debug H/debug H/debug H/debug H/debug H/debug H/debug H/debug H/debug H/debug H/debug H/debug H/debug H/debug H/debug H/debug H/debug H/debug H/debug H/debug H/debug H/debug H/debug H/debug H/debug H/debug H/debug H/debug H/debug H",
"
ABCDEFGHIJKLMNOPQRSTUVWXYZ
aоbcdefghijklmnopqrstuvwxyz,.

АБВГДЕЁЖЗИЙКЛМНОПРСТУФХЦЧШЩЪЫЬЭЮЯ
aбвгдеёжзийклмнoпрстуфхцчшщъыьэюя

HO 1234567890

.,:;…!¡?¿·•*#///backslash -­–—_/emdash.alt (){}[]‚„“”‘’«»‹›\"'

©@H&¶®™°№$€₽+−%",
".,:;…!¡?¿·•*#///backslash -­–—_/emdash.alt (){}[]‚„“”‘’«»‹›\"'",
"HOno
C©@H&¶®™°№
$€₽+−%",
HOno,
"+−×÷=><
HOno",
"£S",
"$¥€₽£
1329₽ 
2900£
$4577
44111¥",
"№ 33",
"~ 3021"
);
axes = (
{
name = Weight;
tag = wght;
},
{
name = Slant;
tag = slnt;
}
);
customParameters = (
{
name = fsType;
value = (
);
},
{
name = "Use Typo Metrics";
value = 1;
},
{
name = unicodeRanges;
value = (
0,
1,
2,
3,
4,
5,
6,
29,
31,
33,
35,
37,
38,
42,
45,
47,
60,
62
);
},
{
name = blueShift;
value = 0;
},
{
name = panose;
value = (
2,
0,
0,
0,
0,
0,
0,
0,
0,
0
);
},
{
name = blueScale;
value = 0;
},
{
name = "Enforce Compatibility Check";
value = 1;
}
);
date = "2020-10-04 19:03:27 +0000";
familyName = Liter;
featurePrefixes = (
{
code = "languagesystem DFLT dflt;

languagesystem latn dflt;
languagesystem latn ROM;
languagesystem latn MOL;
languagesystem latn KAZ;
languagesystem latn TAT;
languagesystem latn TRK;
languagesystem latn CRT;
languagesystem latn AZE;
languagesystem latn CAT;

languagesystem cyrl dflt;
languagesystem cyrl SRB;
languagesystem cyrl BGR;
";
disabled = 1;
name = Languagesystems;
}
);
fontMaster = (
{
axesValues = (
400,
0
);
customParameters = (
{
name = "Master Icon Glyph Name";
value = R;
},
{
name = winAscent;
value = 2192;
},
{
name = winDescent;
value = 237;
},
{
name = typoAscender;
value = 943;
},
{
name = hheaAscender;
value = 943;
},
{
name = typoDescender;
value = -230;
},
{
name = hheaDescender;
value = -230;
},
{

glyphs = (
{
glyphname = A;
kernLeft = A;
kernRight = A;
lastChange = "2023-07-26 08:35:06 +0000";
layers = (
{
layerId = "1C9972D2-AAA2-4EE5-9F28-188B121D2056";
shapes = (
{
closed = 1;
nodes = (
(482,186,l),
(550,0,l),
(646,0,l),
(380,700,l),
(288,700,l),
(22,0,l),
(118,0,l),
(186,186,l)
);
},
{
closed = 1;
nodes = (
(332,602,q),
(336,602,l),
(361,514,o),
(386,446,qs),
(452,268,l),
(216,268,l),
(282,446,ls),
(308,516,o)
);
}
);
width = 668;
}
);
note = A;
unicode = 65;
},
{
glyphname = B;
lastChange = "2023-07-26 08:41:02 +0000";
layers = (
{
layerId = "1C9972D2-AAA2-4EE5-9F28-188B121D2056";
shapes = (
{
closed = 1;
nodes = (
(404,632,o)
);
},
{
closed = 1;
nodes = (
(458,18,qs),
(584,72,o),
(584,200,qs),
(584,322,o),
(466,364,q),
(466,366,l),
(558,406,o),
(558,518,qs),
(558,610,o),
(441,700,o),
(348,700,qs),
(86,700,l),
(86,0,l),
(374,0,ls),
(419,0,o)
);
},
{
closed = 1;
nodes = (
(374,620,o),
(412,604,qs),
(472,581,o),
(468,510,qs),
(464,438,o),
(416,418,qs),
(372,400,o),
(342,400,qs),
(174,400,l),
(174,620,l),
(338,620,ls)
);
},
{
closed = 1;
nodes = (
(408,322,o),
(436,304,qs),
(496,265,o),
(494,200,qs),
(492,132,o),
(436,98,qs),
(410,80,o),
(342,80,qs),
(174,80,l),
(174,322,l),
(366,322,ls)
);
}
);
width = 630;
}
);
metricLeft = H;
unicode = 66;
},
{
glyphname = C;
kernLeft = C;
kernRight = C;
lastChange = "2023-07-04 14:00:33 +0000";
layers = (
{
layerId = "1C9972D2-AAA2-4EE5-9F28-188B121D2056";
shapes = (
{
closed = 1;
nodes = (
(560,220,l),
(551,184,o),
(502,117,o),
(416,72,o),
(358,72,qs),
(290,72,o),
(188,144,o),
(133,271,o),
(134,352,qs),
(133,434,o),
(189,561,o),
(291,629,o),
(360,630,qs),
(415,629,o),
(496,593,o),
(545,528,o),
(558,486,q),
(648,486,l),
(636,550,o),
(562,654,o),
(440,712,o),
(360,712,qs),
(266,712,o),
(121,622,o),
(42,456,o),
(42,352,qs),
(42,247,o),
(122,81,o),
(267,-11,o),
(360,-12,qs),
(446,-11,o),
(572,59,o),
(641,165,o),
(650,220,q)
);
}
);
width = 694;
}
);
metricLeft = O;
unicode = 67;
},
{
glyphname = D;
kernLeft = D;
kernRight = D;
lastChange = "2023-07-04 14:18:52 +0000";
layers = (
{
layerId = "1C9972D2-AAA2-4EE5-9F28-188B121D2056";
shapes = (
{
closed = 1;
nodes = (
(86,700,l),
(86,0,l),
(306,0,ls),
(414,0,o),
(571,85,o),
(654,243,o),
(654,352,qs),
(654,460,o),
(571,616,o),
(414,700,o),
(306,700,q)
);
},
{
closed = 1;
nodes = (
(138,82,l),
(176,42,l),
(176,658,l),
(138,620,l),
(294,620,ls),
(383,620,o),
(503,557,o),
(563,437,o),
(564,352,qs),
(563,222,o),
(427,81,o),
(294,82,q)
);
}
);
width = 696;
}
);
metricLeft = H;
metricRight = O;
unicode = 68;
},
{
glyphname = E;
kernRight = E;
lastChange = "2023-07-04 14:18:49 +0000";
layers = (
{
layerId = "1C9972D2-AAA2-4EE5-9F28-188B121D2056";
shapes = (
{
closed = 1;
nodes = (
(140,82,l),
(176,50,l),
(176,652,l),
(140,618,l),
(532,618,l),
(532,700,l),
(86,700,l),
(86,0,l),
(532,0,l),
(532,82,l)
);
},
{
closed = 1;
nodes = (
(514,402,l),
(160,402,l),
(160,322,l),
(514,322,l)
);
}
);
width = 592;
}
);
metricLeft = H;
unicode = 69;
},
{
glyphname = F;
kernLeft = F;
kernRight = F;
lastChange = "2023-07-04 14:18:46 +0000";
layers = (
{
layerId = "1C9972D2-AAA2-4EE5-9F28-188B121D2056";
shapes = (
{
closed = 1;
nodes = (
(86,0,l),
(176,0,l),
(176,652,l),
(140,618,l),
(530,618,l),
(530,700,l),
(86,700,l)
);
},
{
closed = 1;
nodes = (
(506,390,l),
(160,390,l),
(160,308,l),
(506,308,l)
);
}
);
width = 572;
}
);
metricLeft = H;
unicode = 70;
},
{
glyphname = G;
kernLeft = C;
kernRight = C;
lastChange = "2023-07-04 14:02:10 +0000";
layers = (
{
layerId = "1C9972D2-AAA2-4EE5-9F28-188B121D2056";
shapes = (
{
closed = 1;
nodes = (
(656,362,l),
(352,362,l),
(352,282,l),
(594,282,l),
(568,312,l),
(568,278,ls),
(568,184,o),
(457,71,o),
(364,72,qs),
(297,71,o),
(192,140,o),
(133,267,o),
(134,352,qs),
(133,435,o),
(190,562,o),
(294,629,o),
(364,630,qs),
(442,629,o),
(537,557,o),
(558,492,q),
(650,492,l),
(637,554,o),
(562,656,o),
(441,712,o),
(364,712,qs),
(269,712,o),
(123,623,o),
(42,458,o),
(42,352,qs),
(42,246,o),
(124,81,o),
(270,-11,o),
(362,-12,qs),
(453,-11,o),
(586,67,o),
(656,203,o),
(656,290,q)
);
}
);
width = 698;
}
);
metricLeft = O;
unicode = 71;
},
{
glyphname = H;
lastChange = "2023-07-04 14:02:25 +0000";
layers = (
{
layerId = "1C9972D2-AAA2-4EE5-9F28-188B121D2056";
shapes = (
{
closed = 1;
nodes = (
(86,0,l),
(174,0,l),
(174,700,l),
(86,700,l)
);
},
{
closed = 1;
nodes = (
(646,700,l),
(558,700,l),
(558,0,l),
(646,0,l)
);
},
{
closed = 1;
nodes = (
(160,318,l),
(574,318,l),
(574,400,l),
(160,400,l)
);
}
);
width = 732;
}
);
unicode = 72;
},
{
glyphname = I;
lastChange = "2023-07-04 14:02:29 +0000";
layers = (
{
hints = (
{
horizontal = 1;
place = (0.1, 21);
target = up;
type = BottomGhost;
}
);
layerId = "1C9972D2-AAA2-4EE5-9F28-188B121D2056";
shapes = (
{
closed = 1;
nodes = (
(174,0,l),
(174,700,l),
(86,700,l),
(86,0,l)
);
}
);
width = 260;
}
);
metricLeft = H;
metricRight = H;
unicode = 73;
},
{
glyphname = J;
lastChange = "2023-07-04 13:47:49 +0000";
layers = (
{
layerId = "1C9972D2-AAA2-4EE5-9F28-188B121D2056";
shapes = (
{
closed = 1;
nodes = (
(16,182,l),
(16,133,o),
(63,45,o),
(157,-11,o),
(222,-10,qs),
(325,-11,o),
(438,114,o),
(438,228,qs),
(438,700,l),
(350,700,l),
(350,228,ls),
(349,157,o),
(286,72,o),
(224,72,qs),
(184,72,o),
(131,107,o),
(105,157,o),
(104,182,q)
);
}
);
width = 524;
}
);
metricRight = H;
unicode = 74;
},
{
glyphname = K;
kernRight = K;
lastChange = "2023-07-04 14:02:53 +0000";
layers = (
{
layerId = "1C9972D2-AAA2-4EE5-9F28-188B121D2056";
shapes = (
{
closed = 1;
nodes = (
(86,0,l),
(176,0,l),
(176,700,l),
(86,700,l)
);
},
{
closed = 1;
nodes = (
(488,700,l),
(150,364,l),
(492,0,l),
(610,0,l),
(244,396,l),
(244,342,l),
(604,700,l)
);
}
);
width = 610;
}
);
metricLeft = H;
unicode = 75;
},
{
glyphname = L;
kernRight = L;
lastChange = "2023-07-04 14:03:04 +0000";
layers = (
{
hints = (
{
horizontal = 1;
place = (712.637, -20);
target = down;
type = TopGhost;
}
);
layerId = "1C9972D2-AAA2-4EE5-9F28-188B121D2056";
shapes = (
{
closed = 1;
nodes = (
(140,82,l),
(176,50,l),
(176,700,l),
(86,700,l),
(86,0,l),
(532,0,l),
(532,82,l)
);
}
);
width = 554;
}
);
metricLeft = H;
unicode = 76;
},
{
glyphname = M;
lastChange = "2023-07-26 08:06:06 +0000";
layers = (
{
layerId = "1C9972D2-AAA2-4EE5-9F28-188B121D2056";
shapes = (
{
closed = 1;
nodes = (
(174,401,o),
(170,544,q),
(174,544,l),
(404,0,l),
(488,0,l),
(722,544,l),
(726,544,l),
(718,401,o),
(718,332,qs),
(716,0,l),
(804,0,l),
(804,700,l),
(700,700,l),
(448,118,l),
(446,118,l),
(194,700,l),
(86,700,l),
(86,0,l),
(174,0,l),
(174,332,ls)
);
}
);
width = 890;
}
);
metricLeft = H;
metricRight = H;
unicode = 77;
},
{
glyphname = N;
lastChange = "2023-07-26 11:25:30 +0000";
layers = (
{
layerId = "1C9972D2-AAA2-4EE5-9F28-188B121D2056";
shapes = (
{
closed = 1;
nodes = (
(174,518,o),
(172,586,q),
(176,586,l),
(210,515,o),
(282,408,qs),
(558,0,l),
(644,0,l),
(644,700,l),
(556,700,l),
(558,358,ls),
(559,195,o),
(558,132,q),
(556,132,l),
(521,198,o),
(454,298,qs),
(184,700,l),
(86,700,l),
(85,0,l),
(174,0,l),
(174,370,ls)
);
}
);
width = 730;
}
);
metricLeft = H;
metricRight = H;
unicode = 78;
},
{
glyphname = O;
kernLeft = at;
kernRight = D;
lastChange = "2023-07-03 08:09:33 +0000";
layers = (
{
layerId = "1C9972D2-AAA2-4EE5-9F28-188B121D2056";
shapes = (
{
closed = 1;
nodes = (
(268,712,o),
(122,620,o),
(42,456,o),
(42,352,qs),
(42,248,o),
(122,82,o),
(268,-12,o),
(366,-12,qs),
(462,-12,o),
(610,82,o),
(688,248,o),
(688,352,qs),
(688,456,o),
(610,620,o),
(462,712,o),
(366,712,q)
);
},
{
closed = 1;
nodes = (
(294,70,o),
(190,142,o),
(132,270,o),
(132,352,qs),
(132,434,o),
(190,560,o),
(294,630,o),
(366,630,qs),
(436,630,o),
(542,560,o),
(598,434,o),
(598,352,qs),
(598,270,o),
(542,142,o),
(436,70,o),
(366,70,q)
);
}
);
width = 730;
}
);
unicode = 79;
},
{
glyphname = P;
kernRight = P;
lastChange = "2023-07-04 14:03:31 +0000";
layers = (
{
layerId = "1C9972D2-AAA2-4EE5-9F28-188B121D2056";
shapes = (
{
closed = 1;
nodes = (
(86,700,l),
(86,0,l),
(176,0,l),
(176,640,l),
(156,620,l),
(322,620,ls),
(370,619,o),
(438,583,o),
(474,519,o),
(474,476,qs),
(474,411,o),
(393,332,o),
(322,332,qs),
(158,332,l),
(158,252,l),
(334,252,ls),
(403,251,o),
(509,312,o),
(565,415,o),
(566,476,qs),
(565,538,o),
(510,640,o),
(404,700,o),
(332,700,q)
);
}
);
width = 610;
}
);
metricLeft = H;
unicode = 80;
},
{
glyphname = Q;
kernLeft = C;
lastChange = "2020-06-24 14:54:26 +0000";
layers = (
{
layerId = "1C9972D2-AAA2-4EE5-9F28-188B121D2056";
shapes = (
{
closed = 1;
nodes = (
(668,-61,l),
(484,213,l),
(385,213,l),
(569,-61,l)
);
},
{
ref = O;
}
);
width = 730;
}
);
metricLeft = O;
metricRight = O;
unicode = 81;
},
{
glyphname = R;
kernRight = R;
lastChange = "2023-07-04 14:03:46 +0000";
layers = (
{
layerId = "1C9972D2-AAA2-4EE5-9F28-188B121D2056";
shapes = (
{
closed = 1;
nodes = (
(160,342,l),
(160,260,l),
(338,260,ls),
(408,260,o),
(513,323,o),
(570,424,o),
(570,482,qs),
(570,540,o),
(517,640,o),
(412,700,o),
(338,700,qs),
(86,700,l),
(86,0,l),
(176,0,l),
(176,646,l),
(148,620,l),
(328,620,ls),
(378,619,o),
(446,583,o),
(479,520,o),
(480,482,qs),
(479,443,o),
(446,379,o),
(377,341,o),
(328,342,q)
);
},
{
closed = 1;
nodes = (
(606,0,l),
(410,290,l),
(304,290,l),
(502,0,l)
);
}
);
width = 632;
}
);
metricLeft = H;
unicode = 82;
},
{
glyphname = S;
lastChange = "2023-07-26 19:28:15 +0000";
layers = (
{
guides = (
{
angle = 180;
pos = (512,1129);
}
);
layerId = "1C9972D2-AAA2-4EE5-9F28-188B121D2056";
shapes = (
{
closed = 1;
nodes = (
(40,184,l),
(59.265,60.706,o),
(158.145,-12,o),
(310,-12,cs),
(452.847,-12,o),
(568,62,o),
(568,202,cs),
(568,315.333,o),
(501,358,o),
(376,390,cs),
(244,424,ls),
(186,439,o),
(156,460,o),
(156,520,cs),
(156,611,o),
(229,632,o),
(302,630,cs),
(387.333,628.667,o),
(443.333,598.667,o),
(466,528,c),
(558,528,l),
(532.759,654.206,o),
(432.077,709.999,o),
(302,712,cs),
(143.106,709.593,o),
(64.036,635.77,o),
(66,514,cs),
(64.667,416.667,o),
(114,369,o),
(226,340,cs),
(356,306,ls),
(428,287,o),
(480,257,o),
(478,196,cs),
(476,125,o),
(415,70,o),
(312,70,cs),
(222,70,o),
(153.333,113.333,o),
(132,184,c)
);
}
);
width = 614;
}
);
unicode = 83;
},
{
glyphname = T;
kernLeft = T;
kernRight = T;
lastChange = "2023-07-04 14:04:07 +0000";
layers = (
{
layerId = "1C9972D2-AAA2-4EE5-9F28-188B121D2056";
shapes = (
{
closed = 1;
nodes = (
(346,0,l),
(346,646,l),
(256,646,l),
(256,0,l)
);
},
{
closed = 1;
nodes = (
(24,700,l),
(24,618,l),
(578,618,l),
(578,700,l)
);
}
);
width = 602;
}
);
unicode = 84;
},
{
glyphname = U;
kernLeft = U;
kernRight = U;
lastChange = "2023-07-04 14:04:20 +0000";
layers = (
{
layerId = "1C9972D2-AAA2-4EE5-9F28-188B121D2056";
shapes = (
{
closed = 1;
nodes = (
(76,700,l),
(76,276,ls),
(75,183,o),
(147,54,o),
(272,-12,o),
(354,-12,qs),
(432,-12,o),
(557,54,o),
(629,183,o),
(630,276,qs),
(630,700,l),
(542,700,l),
(542,280,ls),
(540,178,o),
(436,71,o),
(354,72,qs),
(297,71,o),
(212,118,o),
(164,212,o),
(166,280,qs),
(166,700,l)
);
}
);
width = 706;
}
);
unicode = 85;
},
{
glyphname = V;
kernLeft = V;
kernRight = V;
lastChange = "2023-07-26 08:18:11 +0000";
layers = (
{
layerId = "1C9972D2-AAA2-4EE5-9F28-188B121D2056";
shapes = (
{
closed = 1;
nodes = (
(548,700,l),
(390,266,ls),
(361,186,o),
(338,108,q),
(332,108,l),
(309,187,o),
(280,266,qs),
(120,700,l),
(24,700,l),
(288,0,l),
(380,0,l),
(644,700,l)
);
}
);
width = 668;
}
);
unicode = 86;
},
{
glyphname = W;
kernLeft = W;
kernRight = W;
lastChange = "2023-07-26 08:14:41 +0000";
layers = (
{
layerId = "1C9972D2-AAA2-4EE5-9F28-188B121D2056";
shapes = (
{
closed = 1;
nodes = (
(471,473,o),
(494,564,q),
(498,564,l),
(515,494,o),
(546,384,qs),
(656,0,l),
(740,0,l),
(958,700,l),
(864,700,l),
(752,332,ls),
(718,220,o),
(702,154,q),
(698,154,l),
(677,234,o),
(650,326,qs),
(540,700,l),
(454,700,l),
(338,310,ls),
(306,203,o),
(296,150,q),
(292,150,l),
(274,225,o),
(246,316,qs),
(128,700,l),
(38,700,l),
(252,0,l),
(334,0,l),
(444,378,ls)
);
}
);
width = 994;
}
);
unicode = 87;
},
{
glyphname = X;
kernLeft = X;
kernRight = X;
lastChange = "2023-07-04 14:04:46 +0000";
layers = (
{
layerId = "1C9972D2-AAA2-4EE5-9F28-188B121D2056";
shapes = (
{
closed = 1;
nodes = (
(132,700,l),
(624,0,l),
(520,0,l),
(26,700,l)
);
},
{
closed = 1;
nodes = (
(278,374,l),
(356,336,l),
(126,0,l),
(22,0,l)
);
},
{
closed = 1;
nodes = (
(618,700,l),
(370,336,l),
(294,376,l),
(516,700,l)
);
}
);
width = 646;
}
);
unicode = 88;
},
{
glyphname = Y;
kernLeft = Y;
kernRight = Y;
lastChange = "2023-07-04 14:04:52 +0000";
layers = (
{
layerId = "1C9972D2-AAA2-4EE5-9F28-188B121D2056";
shapes = (
{
closed = 1;
nodes = (
(354,0,l),
(354,306,l),
(264,306,l),
(264,0,l)
);
},
{
closed = 1;
nodes = (
(6,700,l),
(272,266,l),
(346,266,l),
(612,700,l),
(512,700,l),
(296,346,l),
(322,346,l),
(106,700,l)
);
}
);
width = 618;
}
);
unicode = 89;
},
{
glyphname = Z;
kernLeft = Z;
kernRight = Z;
lastChange = "2023-07-04 14:05:01 +0000";
layers = (
{
layerId = "1C9972D2-AAA2-4EE5-9F28-188B121D2056";
shapes = (
{
closed = 1;
nodes = (
(464,652,l),
(48,76,l),
(48,0,l),
(548,0,l),
(548,82,l),
(114,82,l),
(134,50,l),
(548,626,l),
(548,700,l),
(48,700,l),
(48,618,l),
(482,618,l)
);
}
);
width = 588;
}
);
unicode = 90;
},
{
glyphname = a;
kernRight = a;
lastChange = "2023-07-26 12:55:21 +0000";
layers = (
{
layerId = "1C9972D2-AAA2-4EE5-9F28-188B121D2056";
shapes = (
{
closed = 1;
nodes = (
(372,63,l),
(353,40,o),
(274,-10,o),
(218,-10,qs),
(170,-10,o),
(90,28,o),
(42,114,o),
(44,160,qs),
(43,234,o),
(150,322,o),
(242,322,qs),
(390,322,l),
(390,248,l),
(248,248,ls),
(178,248,o),
(130,202,o),
(130,162,qs),
(129,122,o),
(186,64,o),
(230,64,qs),
(270,64,o),
(330,96,o),
(370,153,o),
(370,190,qs),
(370,346,ls),
(370,396,o),
(342,432,o),
(282,457,o),
(248,456,qs),
(202,455,o),
(132,414,o),
(120,384,q),
(38,384,l),
(50,446,o),
(166,531,o),
(248,532,qs),
(308,533,o),
(406,488,o),
(456,406,o),
(456,334,qs),
(456,0,l),
(374,0,l),
(374,63,l)
);
}
);
width = 512;
}
);
metricLeft = o;
unicode = 97;
},
{
glyphname = b;
kernLeft = b;
kernRight = b;
lastChange = "2023-07-26 11:38:13 +0000";
layers = (
{
guides = (
{
pos = (118,739);
}
);
layerId = "1C9972D2-AAA2-4EE5-9F28-188B121D2056";
shapes = (
{
closed = 1;
nodes = (
(536,131,o),
(538,258,qs),
(540,365,o),
(413,530,o),
(308,530,qs),
(210,530,o),
(150,452,q),
(148,452,l),
(148,738,l),
(62,738,l),
(62,0,l),
(146,0,l),
(144,66,l),
(146,66,l),
(206,-12,o),
(304,-12,qs),
(405,-12,o)
);
},
{
closed = 1;
nodes = (
(204,66,o),
(144,142,o),
(144,257,cs),
(144,372,o),
(206,447,o),
(299,447,cs),
(394,447,o),
(449,358,o),
(449,259,cs),
(449,142,o),
(391,66,o),
(298,66,cs)
);
}
);
width = 576;
}
);
metricRight = o;
unicode = 98;
},
{
glyphname = c;
kernLeft = c;
kernRight = c;
lastChange = "2023-07-03 08:44:39 +0000";
layers = (
{
layerId = "1C9972D2-AAA2-4EE5-9F28-188B121D2056";
shapes = (
{
closed = 1;
nodes = (
(232,69,o),
(164,116,o),
(126,202,o),
(126,260,qs),
(126,314,o),
(163,400,o),
(231,449,o),
(276,450,qs),
(330,449,o),
(394,391,o),
(406,352,q),
(492,352,l),
(485,396,o),
(432,477,o),
(339,529,o),
(276,530,qs),
(205,529,o),
(97,459,o),
(38,336,o),
(38,260,qs),
(38,181,o),
(97,58,o),
(206,-11,o),
(276,-10,qs),
(336,-11,o),
(430,38,o),
(486,120,o),
(492,168,q),
(406,168,l),
(400,142,o),
(370,98,o),
(316,69,o),
(278,70,q)
);
}
);
width = 530;
}
);
metricLeft = o;
metricRight = o;
unicode = 99;
},
{
glyphname = e;
kernLeft = c;
kernRight = b;
lastChange = "2023-07-14 17:13:03 +0000";
layers = (
{
layerId = "1C9972D2-AAA2-4EE5-9F28-188B121D2056";
shapes = (
{
closed = 1;
nodes = (
(88,310,l),
(88,236,l),
(496,236,l),
(496,280,ls),
(496,354,o),
(441,469,o),
(341,529,o),
(276,530,qs),
(206,529,o),
(98,465,o),
(38,342,o),
(38,262,qs),
(38,182,o),
(99,53,o),
(209,-11,o),
(282,-10,qs),
(343,-11,o),
(432,32,o),
(482,97,o),
(490,130,q),
(402,130,l),
(394,107,o),
(331,66,o),
(284,66,qs),
(237,66,o),
(167,107,o),
(128,189,o),
(128,234,qs),
(128,250,o),
(128,283,o),
(128,300,qs),
(128,343,o),
(166,415,o),
(230,452,o),
(274,452,qs),
(336,452,o),
(408,369,o),
(408,300,qs),
(408,290,l),
(424,310,l)
);
}
);
width = 534;
}
);
metricLeft = o;
metricRight = o;
unicode = 101;
},
{
glyphname = f;
kernLeft = f;
kernRight = f;
lastChange = "2023-07-04 14:06:26 +0000";
layers = (
{
layerId = "1C9972D2-AAA2-4EE5-9F28-188B121D2056";
shapes = (
{
closed = 1;
nodes = (
(314,520,l),
(34,520,l),
(34,444,l),
(314,444,l)
);
},
{
closed = 1;
nodes = (
(120,0,l),
(206,0,l),
(206,470,l),
(206,474,l),
(206,566,ls),
(206,611,o),
(246,650,o),
(286,650,qs),
(354,650,l),
(354,728,l),
(280,728,ls),
(202,728,o),
(119,646,o),
(120,568,q)
);
}
);
width = 354;
}
);
unicode = 102;
},
{
glyphname = g;
kernLeft = c;
lastChange = "2023-07-26 11:49:53 +0000";
layers = (
{
layerId = "1C9972D2-AAA2-4EE5-9F28-188B121D2056";
shapes = (
{
closed = 1;
nodes = (
(232,69,o),
(164,122,o),
(126,208,o),
(126,262,qs),
(126,316,o),
(164,402,o),
(232,450,o),
(276,450,qs),
(322,450,o),
(392,403,o),
(430,319,o),
(430,264,qs),
(430,260,ls),
(430,205,o),
(392,121,o),
(322,69,o),
(276,70,q)
);
},
{
closed = 1;
nodes = (
(463,72,o)
);
},
{
closed = 1;
nodes = (
(426,454,l),
(405,489,o),
(321,531,o),
(268,532,qs),
(208,531,o),
(103,469,o),
(38,348,o),
(38,262,qs),
(38,176,o),
(102,54,o),
(206,-12,o),
(266,-12,qs),
(319,-12,o),
(400,36,o),
(424,72,q),
(428,72,l),
(428,26,ls),
(428,-26,o),
(392,-91,o),
(326,-130,o),
(280,-130,qs),
(220,-130,o),
(159,-88,o),
(148,-54,q),
(62,-54,l),
(66,-94,o),
(116,-164,o),
(212,-208,o),
(278,-208,qs),
(350,-208,o),
(456,-150,o),
(513,-26,o),
(514,26,q),
(514,520,l),
(430,520,l),
(430,454,l)
);
}
);
width = 578;
}
);
unicode = 103;
},
{
glyphname = h;
kernLeft = b;
kernRight = h;
lastChange = "2023-07-26 11:45:15 +0000";
layers = (
{
guides = (
{
pos = (106,740);
}
);
layerId = "1C9972D2-AAA2-4EE5-9F28-188B121D2056";
shapes = (
{
closed = 1;
nodes = (
(302,532,qs),
(260,532,o),
(176,501,o),
(152,464,q),
(150,464,l),
(150,740,l),
(64,740,l),
(64,0,l),
(150,0,l),
(150,246,ls),
(150,352,o),
(160,376,qs),
(193,454,o),
(288,454,qs),
(327,454,o),
(380,414,o),
(392,384,qs),
(402,352,o),
(402,286,qs),
(402,0,l),
(490,0,l),
(490,292,ls),
(490,400,o),
(460,448,qs),
(407,532,o)
);
}
);
width = 548;
}
);
unicode = 104;
},
{
glyphname = i;
kernLeft = i;
kernRight = i;
lastChange = "2023-07-25 11:53:41 +0000";
layers = (
{
layerId = "1C9972D2-AAA2-4EE5-9F28-188B121D2056";
shapes = (
{
closed = 1;
nodes = (
(162,0,l),
(162,520,l),
(76,520,l),
(76,0,l)
);
},
{
closed = 1;
nodes = (
(70,634,l),
(170,634,l),
(170,734,l),
(70,734,l)
);
}
);
width = 238;
}
);
unicode = 105;
},
{
glyphname = j;
lastChange = "2023-07-25 11:53:26 +0000";
layers = (
{
layerId = "1C9972D2-AAA2-4EE5-9F28-188B121D2056";
shapes = (
{
closed = 1;
nodes = (
(-44,-114,l),
(-46,-190,l),
(-10,-190,ls),
(34,-190,o),
(96,-157,o),
(130,-85,o),
(130,-30,qs),
(130,520,l),
(44,520,l),
(44,-26,ls),
(44,-76,o),
(5,-114,o),
(-24,-114,q)
);
},
{
closed = 1;
nodes = (
(36,634,l),
(136,634,l),
(136,734,l),
(36,734,l)
);
}
);
width = 204;
}
);
unicode = 106;
},
{
glyphname = k;
kernLeft = b;
kernRight = k;
lastChange = "2023-07-03 08:42:09 +0000";
layers = (
{
layerId = "1C9972D2-AAA2-4EE5-9F28-188B121D2056";
shapes = (
{
closed = 1;
nodes = (
(64,0,l),
(150,0,l),
(150,728,l),
(64,728,l)
);
},
{
closed = 1;
nodes = (
(368,520,l),
(128,278,l),
(368,0,l),
(480,0,l),
(228,292,l),
(228,268,l),
(476,520,l)
);
}
);
width = 486;
}
);
unicode = 107;
},
{
glyphname = l;
kernLeft = b;
kernRight = d;
lastChange = "2020-06-23 14:37:58 +0000";
layers = (
{
layerId = "1C9972D2-AAA2-4EE5-9F28-188B121D2056";
shapes = (
{
closed = 1;
nodes = (
(161,0,l),
(161,733,l),
(75,733,l),
(76,0,l)
);
}
);
width = 236;
}
);
unicode = 108;
},
{
glyphname = m;
kernLeft = m;
kernRight = h;
lastChange = "2023-07-26 11:50:54 +0000";
layers = (
{
layerId = "1C9972D2-AAA2-4EE5-9F28-188B121D2056";
shapes = (
{
closed = 1;
nodes = (
(64,0,l),
(64,520,l),
(148,520,l),
(150,396,l),
(150,0,l)
);
},
{
closed = 1;
nodes = (
(382,0,l),
(382,330,ls),
(382,413,o),
(335,455,o),
(274,456,cs),
(227,455,o),
(188,435,o),
(166,394,cs),
(153,372,o),
(150,345,o),
(150,314,c),
(114,392,l),
(135,473,o),
(199,533,o),
(290,534,cs),
(403,533,o),
(468,453,o),
(468,330,cs),
(468,0,l)
);
},
{
closed = 1;
nodes = (
(700,0,l),
(700,328,ls),
(700,410,o),
(657,455,o),
(594,456,cs),
(514,455,o),
(468,400,o),
(468,334,c),
(418,398,l),
(441,478,o),
(516,533,o),
(602,534,cs),
(709,533,o),
(786,469,o),
(786,336,cs),
(786,0,l)
);
}
);
width = 850;
}
);
unicode = 109;
},
{
glyphname = n;
kernLeft = m;
kernRight = h;
lastChange = "2023-07-26 11:51:13 +0000";
layers = (
{
layerId = "1C9972D2-AAA2-4EE5-9F28-188B121D2056";
shapes = (
{
closed = 1;
nodes = (
(302,532,qs),
(260,532,o),
(176,501,o),
(152,464,q),
(150,464,l),
(150,520,l),
(64,520,l),
(64,0,l),
(150,0,l),
(150,246,ls),
(150,357,o),
(160,376,qs),
(201,454,o),
(284,454,qs),
(323,454,o),
(380,418,o),
(392,388,qs),
(402,356,o),
(402,286,qs),
(402,0,l),
(490,0,l),
(490,292,ls),
(490,400,o),
(460,448,qs),
(407,532,o)
);
}
);
width = 548;
}
);
unicode = 110;
},
{
glyphname = o;
lastChange = "2023-07-07 08:37:23 +0000";
layers = (
{
layerId = "1C9972D2-AAA2-4EE5-9F28-188B121D2056";
shapes = (
{
closed = 1;
nodes = (
(107,-12,o),
(38,118,o),
(38,260,cs),
(38,406,o),
(110,531,o),
(278,532,cs),
(447,531,o),
(517,402,o),
(518,260,cs),
(517,106,o),
(439,-12,o),
(278,-12,cs)
);
},
{
closed = 1;
nodes = (
(399,63,o),
(431,170,o),
(432,260,cs),
(431,349,o),
(398,455,o),
(278,456,cs),
(153,455,o),
(124,346,o),
(124,260,cs),
(124,167,o),
(157,63,o),
(278,64,cs)
);
}
);
width = 556;
}
);
unicode = 111;
},
{
glyphname = p;
lastChange = "2023-07-26 12:57:50 +0000";
layers = (
{
layerId = "1C9972D2-AAA2-4EE5-9F28-188B121D2056";
shapes = (
{
closed = 1;
nodes = (
(148,453,q),
(146,453,l),
(146,520,l),
(64,520,l),
(64,-200,l),
(150,-200,l),
(148,68,l),
(150,68,l),
(199,-11,o),
(306,-12,qs),
(409,-13,o),
(539,131,o),
(539,258,qs),
(539,384,o),
(406,532,o),
(311,532,qs),
(218,535,o)
);
},
{
closed = 1;
nodes = (
(397,454,o),
(450,366,o),
(451,262,cs),
(450,148,o),
(401,66,o),
(301,66,cs),
(193,66,o),
(146,149,o),
(147,262,cs),
(146,389,o),
(212,454,o),
(301,454,cs)
);
}
);
width = 577;
}
);
metricLeft = n;
metricRight = o;
unicode = 112;
},
{
glyphname = r;
lastChange = "2023-07-26 12:05:38 +0000";
layers = (
{
layerId = "1C9972D2-AAA2-4EE5-9F28-188B121D2056";
shapes = (
{
closed = 1;
nodes = (
(146,326,o),
(157,355,qs),
(188,438,o),
(298,438,qs),
(328,438,l),
(328,524,l),
(303,524,ls),
(250,524,o),
(167,474,o),
(148,433,q),
(146,433,l),
(146,520,l),
(64,520,l),
(64,0,l),
(146,0,l),
(146,267,ls)
);
}
);
width = 348;
}
);
metricLeft = n;
unicode = 114;
},
{
glyphname = s;
lastChange = "2023-07-25 11:51:27 +0000";
layers = (
{
layerId = "1C9972D2-AAA2-4EE5-9F28-188B121D2056";
shapes = (
{
closed = 1;
nodes = (
(42,142,l),
(47,87,o),
(110,19,o),
(202,-11,o),
(254,-12,qs),
(308,-11,o),
(397,26,o),
(448,101,o),
(448,150,qs),
(448,231,o),
(368,297,o),
(302,306,qs),
(210,318,ls),
(174,323,o),
(138,353,o),
(138,380,qs),
(138,412,o),
(194,455,o),
(242,456,qs),
(285,455,o),
(342,421,o),
(354,388,q),
(438,388,l),
(430,432,o),
(377,497,o),
(294,531,o),
(242,532,qs),
(187,531,o),
(101,490,o),
(52,418,o),
(52,374,qs),
(52,312,o),
(129,247,o),
(196,238,qs),
(286,226,ls),
(321,221,o),
(362,173,o),
(362,146,qs),
(362,108,o),
(303,65,o),
(252,66,qs),
(201,65,o),
(134,105,o),
(126,142,q)
);
}
);
width = 490;
}
);
unicode = 115;
},
{
glyphname = t;
kernLeft = t;
kernRight = t;
lastChange = "2023-07-03 08:46:01 +0000";
layers = (
{
layerId = "1C9972D2-AAA2-4EE5-9F28-188B121D2056";
shapes = (
{
closed = 1;
nodes = (
(300,520,l),
(20,520,l),
(20,444,l),
(300,444,l)
);
},
{
closed = 1;
nodes = (
(190,626,l),
(104,626,l),
(104,142,ls),
(103,63,o),
(178,-12,o),
(252,-12,qs),
(300,-12,l),
(300,66,l),
(266,66,ls),
(230,65,o),
(189,99,o),
(190,146,q)
);
}
);
width = 340;
}
);
unicode = 116;
},
{
glyphname = v;
kernLeft = v;
kernRight = v;
lastChange = "2023-07-26 11:59:20 +0000";
layers = (
{
layerId = "1C9972D2-AAA2-4EE5-9F28-188B121D2056";
shapes = (
{
closed = 1;
nodes = (
(494,520,l),
(402,520,l),
(306,256,ls),
(272,162,o),
(255,110,q),
(251,110,l),
(234,162,o),
(200,256,qs),
(104,520,l),
(12,520,l),
(208,0,l),
(298,0,l)
);
}
);
width = 506;
}
);
unicode = 118;
},
{
glyphname = w;
kernLeft = w;
kernRight = w;
lastChange = "2023-07-26 12:02:48 +0000";
layers = (
{
layerId = "1C9972D2-AAA2-4EE5-9F28-188B121D2056";
shapes = (
{
closed = 1;
nodes = (
(342,268,ls),
(357,318,o),
(379,411,q),
(382,411,l),
(406,318,o),
(421,268,qs),
(499,0,l),
(585,0,l),
(748,520,l),
(658,520,l),
(573,241,ls),
(561,200,o),
(543,125,q),
(540,125,l),
(521,200,o),
(509,241,qs),
(426,520,l),
(338,520,l),
(249,222,ls),
(241,194,o),
(224,131,q),
(222,131,l),
(205,194,o),
(196,222,qs),
(106,520,l),
(15,520,l),
(180,0,l),
(263,0,l)
);
}
);
width = 762;
}
);
unicode = 119;
},
{
glyphname = x;
lastChange = "2023-07-03 08:46:32 +0000";
layers = (
{
layerId = "1C9972D2-AAA2-4EE5-9F28-188B121D2056";
shapes = (
{
closed = 1;
nodes = (
(114,520,l),
(482,0,l),
(384,-4,l),
(16,520,l)
);
},
{
closed = 1;
nodes = (
(286,234,l),
(230,290,l),
(380,520,l),
(478,520,l)
);
},
{
closed = 1;
nodes = (
(204,278,l),
(260,216,l),
(112,0,l),
(14,0,l)
);
}
);
width = 496;
}
);
unicode = 120;
},
{
glyphname = y;
kernLeft = v;
kernRight = y;
lastChange = "2023-07-26 12:55:37 +0000";
layers = (
{
layerId = "1C9972D2-AAA2-4EE5-9F28-188B121D2056";
shapes = (
{
closed = 1;
nodes = (
(235,-188,l),
(507,520,l),
(415,520,l),
(313,243,ls),
(312,240,o),
(274,139,o),
(266,114,q),
(264,114,l),
(243,170,o),
(216,239,qs),
(108,520,l),
(12,520,l),
(221,2,l),
(142,-188,l)
);
}
);
width = 519;
}
);
unicode = 121;
},
{
glyphname = z;
lastChange = "2023-07-03 08:46:53 +0000";
layers = (
{
layerId = "1C9972D2-AAA2-4EE5-9F28-188B121D2056";
shapes = (
{
closed = 1;
nodes = (
(354,444,l),
(338,474,l),
(36,68,l),
(36,0,l),
(426,0,l),
(426,78,l),
(108,78,l),
(124,48,l),
(426,452,l),
(426,520,l),
(36,520,l),
(36,444,l)
);
}
);
width = 462;
}
);
unicode = 122;
},
{
glyphname = "Be-cy";
kernLeft = N;
kernRight = P;
lastChange = "2023-07-04 17:03:11 +0000";
layers = (
{
layerId = "1C9972D2-AAA2-4EE5-9F28-188B121D2056";
shapes = (
{
closed = 1;
nodes = (
(156,426,l),
(156,346,l),
(328,346,ls),
(396,345,o),
(474,275,o),
(474,214,qs),
(474,153,o),
(396,81,o),
(328,82,qs),
(148,82,l),
(176,58,l),
(176,642,l),
(150,618,l),
(516,618,l),
(516,700,l),
(86,700,l),
(86,0,l),
(342,0,ls),
(408,0,o),
(510,55,o),
(565,153,o),
(566,214,qs),
(565,276,o),
(511,373,o),
(408,426,o),
(340,426,q)
);
}
);
width = 606;
}
);
metricLeft = B;
unicode = 1041;
},
{
glyphname = "Ge-cy";
kernLeft = B;
kernRight = T;
lastChange = "2023-07-04 17:03:14 +0000";
layers = (
{
layerId = "1C9972D2-AAA2-4EE5-9F28-188B121D2056";
shapes = (
{
closed = 1;
nodes = (
(140,618,l),
(522,618,l),
(522,700,l),
(86,700,l),
(86,0,l),
(176,0,l),
(176,652,l)
);
}
);
width = 546;
}
);
metricLeft = B;
metricRight = T;
unicode = 1043;
},
{
glyphname = "De-cy";
kernLeft = A;
kernRight = N;
lastChange = "2020-06-24 13:25:52 +0000";
layers = (
{
layerId = "1C9972D2-AAA2-4EE5-9F28-188B121D2056";
shapes = (
{
closed = 1;
nodes = (
(723,-134,l),
(723,83,l),
(30,83,l),
(30,-134,l),
(116,-134,l),
(116,35,l),
(81,0,l),
(672,0,l),
(637,35,l),
(637,-134,l)
);
},
{
closed = 1;
nodes = (
(187,81,l),
(208,102,o),
(234,165,o),
(249,264,o),
(254,343,qs),
(275,654,l),
(236,618,l),
(583,618,l),
(548,654,l),
(548,67,l),
(637,67,l),
(637,700,l),
(192,700,l),
(168,343,ls),
(163,266,o),
(143,164,o),
(108,99,o),
(81,81,q)
);
}
);
width = 753;
}
);
unicode = 1044;
},
{
glyphname = "Io-cy";
kernLeft = E;
kernRight = E;
lastChange = "2023-07-25 17:46:51 +0000";
layers = (
{
layerId = "1C9972D2-AAA2-4EE5-9F28-188B121D2056";
shapes = (
{
ref = E;
},
{
closed = 1;
nodes = (
(172,816,l),
(272,816,l),
(272,916,l),
(172,916,l)
);
},
{
closed = 1;
nodes = (
(344,816,l),
(444,816,l),
(444,916,l),
(344,916,l)
);
}
);
width = 592;
}
);
metricLeft = E;
metricRight = E;
unicode = 1025;
},
{
glyphname = "Zhe-cy";
kernLeft = X;
kernRight = K;
lastChange = "2023-07-26 13:06:57 +0000";
layers = (
{
layerId = "1C9972D2-AAA2-4EE5-9F28-188B121D2056";
shapes = (
{
closed = 1;
nodes = (
(818,700,l),
(514,364,l),
(826,0,l),
(936,0,l),
(600,396,l),
(600,336,l),
(930,700,l)
);
},
{
closed = 1;
nodes = (
(442,700,l),
(442,0,l),
(532,0,l),
(532,700,l)
);
},
{
closed = 1;
nodes = (
(148,0,l),
(462,364,l),
(156,700,l),
(44,700,l),
(376,334,l),
(376,394,l),
(38,0,l)
);
}
);
width = 972;
}
);
metricLeft = W;
metricRight = W;
unicode = 1046;
},
{
glyphname = "Ze-cy";
kernLeft = O;
kernRight = B;
lastChange = "2020-10-03 11:21:08 +0000";
layers = (
{
layerId = "1C9972D2-AAA2-4EE5-9F28-188B121D2056";
shapes = (
{
closed = 1;
nodes = (
(147,524,l),
(157,575,o),
(241,632,o),
(304,632,qs),
(346,632,o),
(409,604,o),
(444,552,o),
(444,517,qs),
(444,484,o),
(414,432,o),
(353,402,o),
(308,402,qs),
(207,402,l),
(207,321,l),
(314,321,ls),
(385,321,o),
(470,261,o),
(470,201,qs),
(470,162,o),
(432,104,o),
(362,72,o),
(314,72,qs),
(265,72,o),
(192,102,o),
(148,153,o),
(141,186,q),
(52,186,l),
(59,125,o),
(129,36,o),
(242,-11,o),
(314,-11,qs),
(387,-11,o),
(499,44,o),
(561,140,o),
(561,200,qs),
(561,250,o),
(520,321,o),
(462,361,o),
(435,368,q),
(461,377,o),
(507,419,o),
(535,482,o),
(535,520,qs),
(535,577,o),
(478,665,o),
(373,715,o),
(304,715,qs),
(243,715,o),
(137,672,o),
(66,586,o),
(59,524,q)
);
}
);
width = 604;
}
);
unicode = 1047;
},
{
glyphname = "Ii-cy";
kernLeft = N;
kernRight = N;
lastChange = "2023-07-26 12:08:47 +0000";
layers = (
{
layerId = "1C9972D2-AAA2-4EE5-9F28-188B121D2056";
shapes = (
{
closed = 1;
nodes = (
(558,0,l),
(647,0,l),
(646,700,l),
(557,700,l),
(280,296,ls),
(211,196,o),
(176,132,q),
(174,132,l),
(173,195,o),
(174,358,qs),
(176,700,l),
(88,700,l),
(88,0,l),
(174,0,l),
(452,406,ls),
(525,513,o),
(556,586,q),
(560,586,l),
(558,518,o),
(558,370,qs)
);
}
);
width = 735;
}
);
unicode = 1048;
},
{
glyphname = "El-cy";
kernLeft = A;
kernRight = H;
lastChange = "2023-07-04 14:17:34 +0000";
layers = (
{
layerId = "1C9972D2-AAA2-4EE5-9F28-188B121D2056";
shapes = (
{
closed = 1;
nodes = (
(10,81,l),
(10,-2,l),
(36,-2,ls),
(105,-2,o),
(187,56,o),
(224,159,o),
(229,233,qs),
(258,660,l),
(218,622,l),
(553,622,l),
(518,658,l),
(518,0,l),
(607,0,l),
(607,704,l),
(175,704,l),
(143,239,ls),
(139,181,o),
(115,113,o),
(66,81,o),
(25,81,q)
);
}
);
width = 694;
}
);
metricRight = H;
unicode = 1051;
},
{
glyphname = "Pe-cy";
kernLeft = H;
kernRight = H;
lastChange = "2023-07-04 14:17:38 +0000";
layers = (
{
layerId = "1C9972D2-AAA2-4EE5-9F28-188B121D2056";
shapes = (
{
closed = 1;
nodes = (
(638,700,l),
(86,700,l),
(86,0,l),
(176,0,l),
(176,662,l),
(130,618,l),
(594,618,l),
(548,662,l),
(548,0,l),
(638,0,l),
(638,0,l)
);
}
);
width = 724;
}
);
metricLeft = H;
metricRight = H;
unicode = 1055;
},
{
glyphname = "U-cy";
kernLeft = X;
kernRight = Y;
lastChange = "2023-07-26 12:12:09 +0000";
layers = (
{
layerId = "1C9972D2-AAA2-4EE5-9F28-188B121D2056";
shapes = (
{
closed = 1;
nodes = (
(522,700,l),
(381,411,ls),
(334,315,o),
(326,292,q),
(323,292,l),
(317,305,o),
(260,415,qs),
(112,700,l),
(12,700,l),
(275,200,l),
(178,0,l),
(276,0,l),
(620,700,l)
);
}
);
width = 632;
}
);
metricLeft = y;
metricRight = y;
unicode = 1059;
},
{
glyphname = "Ef-cy";
kernLeft = O;
kernRight = O;
lastChange = "2020-10-03 11:21:26 +0000";
layers = (
{
layerId = "1C9972D2-AAA2-4EE5-9F28-188B121D2056";
shapes = (
{
closed = 1;
nodes = (
(452,700,l),
(364,700,l),
(364,652,l),
(275,649,o),
(128,579,o),
(42,446,o),
(42,356,qs),
(42,264,o),
(128,132,o),
(275,62,o),
(364,60,q),
(364,0,l),
(452,0,l),
(452,60,l),
(540,62,o),
(687,132,o),
(773,264,o),
(774,356,qs),
(773,446,o),
(687,579,o),
(540,649,o),
(452,652,q)
);
},
{
closed = 1;
nodes = (
(364,142,l),
(295,142,o),
(190,195,o),
(132,291,o),
(132,356,qs),
(132,420,o),
(190,516,o),
(295,568,o),
(364,570,q)
);
},
{
closed = 1;
nodes = (
(452,570,l),
(520,569,o),
(625,516,o),
(683,420,o),
(684,356,qs),
(683,291,o),
(625,195,o),
(520,142,o),
(452,142,q)
);
}
);
width = 816;
}
);
metricLeft = O;
metricRight = O;
unicode = 1060;
},
{
glyphname = "Che-cy";
kernLeft = M;
kernRight = N;
lastChange = "2023-07-04 14:17:47 +0000";
layers = (
{
background = {
shapes = (
{
closed = 1;
nodes = (
(654,0,l),
(654,720,l),
(516,720,l),
(516,360,l),
(532,420,l),
(506,387,o),
(454,360,o),
(378,360,cs),
(342,360,o),
(301,366,o),
(276,402,cs),
(245,444,o),
(245,514,o),
(246,554,cs),
(246,720,l),
(108,720,l),
(108,524,ls),
(107,468,o),
(107,383,o),
(160,314,cs),
(207,251,o),
(275,232,o),
(352,232,cs),
(424,232,o),
(498,250,o),
(536,284,c),
(516,314,l),
(516,0,l)
);
}
);
};
layerId = "1C9972D2-AAA2-4EE5-9F28-188B121D2056";
shapes = (
{
closed = 1;
nodes = (
(548,416,l),
(518,385,o),
(423,345,o),
(360,346,qs),
(306,345,o),
(223,384,o),
(175,466,o),
(176,528,qs),
(176,700,l),
(86,700,l),
(86,526,ls),
(86,439,o),
(157,320,o),
(277,262,o),
(352,262,qs),
(421,262,o),
(517,297,o),
(550,330,q)
);
},
{
closed = 1;
nodes = (
(604,700,l),
(516,700,l),
(516,0,l),
(604,0,l)
);
}
);
width = 690;
}
);
metricLeft = M;
metricRight = M;
unicode = 1063;
},
{
glyphname = "Tse-cy";
kernLeft = H;
kernRight = "tse-cy";
lastChange = "2023-07-04 14:17:50 +0000";
layers = (
{
layerId = "1C9972D2-AAA2-4EE5-9F28-188B121D2056";
shapes = (
{
closed = 1;
nodes = (
(546,700,l),
(546,50,l),
(634,50,l),
(634,700,l)
);
},
{
closed = 1;
nodes = (
(720,-134,l),
(720,84,l),
(140,84,l),
(176,50,l),
(176,700,l),
(86,700,l),
(86,0,l),
(670,0,l),
(634,36,l),
(634,-134,l)
);
}
);
width = 736;
}
);
metricLeft = H;
unicode = 1062;
},
{
glyphname = "Sha-cy";
kernLeft = H;
kernRight = H;
lastChange = "2023-07-04 14:17:55 +0000";
layers = (
{
layerId = "1C9972D2-AAA2-4EE5-9F28-188B121D2056";
shapes = (
{
closed = 1;
nodes = (
(444,700,l),
(444,48,l),
(532,48,l),
(532,700,l)
);
},
{
closed = 1;
nodes = (
(800,50,l),
(836,84,l),
(140,84,l),
(176,50,l),
(176,700,l),
(86,700,l),
(86,0,l),
(890,0,l),
(890,700,l),
(800,700,l)
);
}
);
width = 976;
}
);
metricLeft = H;
metricRight = H;
unicode = 1064;
},
{
glyphname = "Shcha-cy";
kernLeft = H;
kernRight = "tse-cy";
lastChange = "2023-07-04 14:17:59 +0000";
layers = (
{
layerId = "1C9972D2-AAA2-4EE5-9F28-188B121D2056";
shapes = (
{
closed = 1;
nodes = (
(980,-132,l),
(980,83,l),
(733,83,l),
(733,0,l),
(885,0,l),
(885,-132,l)
);
},
{
ref = "Sha-cy";
}
);
width = 1024;
}
);
metricLeft = H;
unicode = 1065;
},
{
glyphname = "Softsign-cy";
kernLeft = H;
kernRight = B;
lastChange = "2023-07-26 13:07:01 +0000";
layers = (
{
layerId = "1C9972D2-AAA2-4EE5-9F28-188B121D2056";
shapes = (
{
closed = 1;
nodes = (
(132,446,l),
(132,364,l),
(322,364,ls),
(369,364,o),
(438,329,o),
(474,265,o),
(474,224,qs),
(474,159,o),
(392,81,o),
(322,82,qs),
(148,82,l),
(176,50,l),
(176,700,l),
(86,700,l),
(86,0,l),
(334,0,ls),
(403,0,o),
(508,60,o),
(565,162,o),
(566,224,qs),
(565,285,o),
(509,386,o),
(403,445,o),
(332,446,q)
);
}
);
width = 612;
}
);
metricLeft = H;
metricRight = B;
unicode = 1068;
},
{
glyphname = "Hardsign-cy";
kernLeft = T;
kernRight = B;
lastChange = "2020-06-24 13:34:36 +0000";
layers = (
{
layerId = "1C9972D2-AAA2-4EE5-9F28-188B121D2056";
shapes = (
{
closed = 1;
nodes = (
(236,445,l),
(236,364,l),
(425,364,ls),
(473,364,o),
(542,329,o),
(578,265,o),
(578,223,qs),
(578,159,o),
(496,81,o),
(425,81,qs),
(251,81,l),
(279,50,l),
(279,700,l),
(35,700,l),
(35,618,l),
(216,618,l),
(190,648,l),
(190,0,l),
(437,0,ls),
(507,0,o),
(612,60,o),
(669,162,o),
(669,223,qs),
(669,285,o),
(613,386,o),
(507,445,o),
(435,445,q)
);
}
);
width = 673;
}
);
unicode = 1066;
},
{
glyphname = "Ereversed-cy";
kernLeft = X;
kernRight = O;
lastChange = "2020-10-03 11:22:04 +0000";
layers = (
{
layerId = "1C9972D2-AAA2-4EE5-9F28-188B121D2056";
shapes = (
{
closed = 1;
nodes = (
(250,400,l),
(250,320,l),
(616,320,l),
(616,400,l)
);
},
{
closed = 1;
nodes = (
(42,210,l),
(53,158,o),
(121,57,o),
(245,-11,o),
(332,-12,qs),
(423,-11,o),
(568,78,o),
(649,242,o),
(650,352,qs),
(649,461,o),
(569,625,o),
(426,715,o),
(334,716,qs),
(254,715,o),
(132,655,o),
(57,555,o),
(46,496,q),
(134,496,l),
(147,533,o),
(198,594,o),
(279,632,o),
(334,632,qs),
(400,632,o),
(502,565,o),
(558,440,o),
(558,356,qs),
(558,348,ls),
(558,265,o),
(502,140,o),
(400,72,o),
(334,72,qs),
(275,72,o),
(191,115,o),
(143,178,o),
(132,210,q)
);
}
);
width = 692;
}
);
metricLeft = O;
metricRight = O;
unicode = 1069;
},
{
glyphname = "Iu-cy";
kernLeft = H;
kernRight = O;
lastChange = "2023-07-04 14:18:16 +0000";
layers = (
{
layerId = "1C9972D2-AAA2-4EE5-9F28-188B121D2056";
shapes = (
{
closed = 1;
nodes = (
(86,0,l),
(176,0,l),
(176,704,l),
(86,704,l)
);
},
{
closed = 1;
nodes = (
(318,404,l),
(156,404,l),
(156,320,l),
(318,320,l)
);
},
{
closed = 1;
nodes = (
(509,715,o),
(364,621,o),
(286,456,o),
(286,352,qs),
(286,248,o),
(364,83,o),
(509,-11,o),
(606,-12,qs),
(701,-11,o),
(846,83,o),
(924,248,o),
(924,352,qs),
(924,456,o),
(846,621,o),
(701,715,o),
(606,716,q)
);
},
{
closed = 1;
nodes = (
(535,72,o),
(432,143,o),
(377,270,o),
(378,352,qs),
(377,434,o),
(432,561,o),
(535,632,o),
(606,632,qs),
(675,632,o),
(778,561,o),
(833,434,o),
(834,352,qs),
(833,270,o),
(778,143,o),
(675,72,o),
(606,72,q)
);
}
);
width = 966;
}
);
metricLeft = H;
metricRight = O;
unicode = 1070;
},
{
glyphname = "Ia-cy";
kernLeft = N;
kernRight = N;
lastChange = "2023-07-04 14:18:20 +0000";
layers = (
{
layerId = "1C9972D2-AAA2-4EE5-9F28-188B121D2056";
shapes = (
{
closed = 1;
nodes = (
(324,287,l),
(220,287,l),
(24,0,l),
(129,0,l)
);
},
{
closed = 1;
nodes = (
(480,256,l),
(480,336,l),
(311,336,ls),
(262,336,o),
(192,373,o),
(156,437,o),
(156,478,qs),
(156,519,o),
(191,582,o),
(261,619,o),
(310,619,qs),
(484,619,l),
(457,646,l),
(457,0,l),
(546,0,l),
(546,700,l),
(299,700,ls),
(228,700,o),
(122,642,o),
(65,541,o),
(65,478,qs),
(65,415,o),
(123,314,o),
(228,256,o),
(295,256,q)
);
}
);
width = 632;
}
);
metricRight = H;
unicode = 1071;
},
{
glyphname = "be-cy";
kernLeft = "be-cy";
kernRight = o;
lastChange = "2023-07-26 12:52:26 +0000";
layers = (
{
layerId = "1C9972D2-AAA2-4EE5-9F28-188B121D2056";
shapes = (
{
closed = 1;
nodes = (
(247,504,o),
(150,449,o),
(124,396,q),
(134,368,l),
(136,444,o),
(169,545,o),
(244,613,o),
(310,618,qs),
(494,632,l),
(494,714,l),
(294,698,ls),
(206,691,o),
(100,584,o),
(50,421,o),
(50,296,qs),
(50,199,o),
(112,61,o),
(227,-11,o),
(304,-12,qs),
(376,-11,o),
(484,58,o),
(543,176,o),
(544,248,qs),
(543,328,o),
(483,444,o),
(378,504,o),
(312,504,q)
);
},
{
closed = 1;
nodes = (
(253,67,o),
(181,112,o),
(141,196,o),
(142,252,qs),
(141,307,o),
(183,386,o),
(256,427,o),
(302,428,qs),
(347,427,o),
(417,381,o),
(455,300,o),
(456,248,qs),
(455,196,o),
(417,113,o),
(347,67,o),
(300,68,q)
);
}
);
width = 582;
}
);
metricRight = o;
unicode = 1073;
},
{
glyphname = "ve-cy";
kernLeft = n;
kernRight = ve;
lastChange = "2023-07-26 12:29:34 +0000";
layers = (
{
layerId = "1C9972D2-AAA2-4EE5-9F28-188B121D2056";
shapes = (
{
closed = 1;
nodes = (
(372,275,l),
(397,287,o),
(435,344,o),
(436,386,qs),
(435,445,o),
(354,520,o),
(278,520,q),
(64,520,l),
(64,0,l),
(290,0,ls),
(368,0,o),
(457,83,o),
(458,148,qs),
(457,198,o),
(407,263,o),
(372,273,q)
);
},
{
closed = 1;
nodes = (
(114,76,l),
(148,38,l),
(148,482,l),
(114,444,l),
(270,444,ls),
(309,444,o),
(350,409,o),
(350,376,qs),
(350,343,o),
(308,304,o),
(270,304,qs),
(122,304,l),
(122,230,l),
(280,230,ls),
(325,230,o),
(371,191,o),
(372,154,qs),
(371,118,o),
(322,74,o),
(280,76,q)
);
}
);
width = 500;
},
{
associatedMasterId = "1C9972D2-AAA2-4EE5-9F28-188B121D2056";
layerId = "A2873047-0ED6-4C67-9B4D-3870B51BD5C6";
name = "new Layer";
width = 600;
}
);
unicode = 1074;
},
{
glyphname = "ge-cy";
kernLeft = r;
kernRight = r;
lastChange = "2023-07-04 14:08:34 +0000";
layers = (
{
layerId = "1C9972D2-AAA2-4EE5-9F28-188B121D2056";
shapes = (
{
closed = 1;
nodes = (
(150,478,l),
(116,444,l),
(398,444,l),
(398,520,l),
(64,520,l),
(64,0,l),
(150,0,l)
);
}
);
width = 432;
}
);
metricLeft = r;
unicode = 1075;
},
{
glyphname = "de-cy";
kernLeft = o;
kernRight = v;
lastChange = "2023-07-26 12:53:43 +0000";
layers = (
{
layerId = "1C9972D2-AAA2-4EE5-9F28-188B121D2056";
shapes = (
{
closed = 1;
nodes = (
(574,-128,l),
(574,78,l),
(15,78,l),
(15,-128,l),
(98,-128,l),
(98,35,l),
(64,0,l),
(525,0,l),
(491,35,l),
(491,-128,l)
);
},
{
closed = 1;
nodes = (
(416,480,l),
(414,60,l),
(500,60,l),
(502,520,l),
(140,520,l),
(118,251,ls),
(112,176,o),
(75,80,o),
(46,73,q),
(151,73,l),
(176,97,o),
(195,180,o),
(201,249,qs),
(220,480,l),
(182,444,l),
(452,444,l)
);
}
);
width = 597;
}
);
unicode = 1076;
},
{
glyphname = "io-cy";
kernLeft = e;
kernRight = e;
lastChange = "2023-07-25 11:54:28 +0000";
layers = (
{
layerId = "1C9972D2-AAA2-4EE5-9F28-188B121D2056";
shapes = (
{
ref = e;
},
{
closed = 1;
nodes = (
(140,598,l),
(240,598,l),
(240,698,l),
(140,698,l)
);
},
{
closed = 1;
nodes = (
(312,598,l),
(412,598,l),
(412,698,l),
(312,698,l)
);
}
);
width = 534;
}
);
metricLeft = e;
metricRight = e;
unicode = 1105;
},
{
glyphname = "zhe-cy";
kernLeft = x;
kernRight = x;
lastChange = "2023-07-04 14:09:11 +0000";
layers = (
{
layerId = "1C9972D2-AAA2-4EE5-9F28-188B121D2056";
shapes = (
{
closed = 1;
nodes = (
(700,520,l),
(596,520,l),
(380,274,l),
(598,0,l),
(704,0,l),
(472,292,l),
(472,260,l)
);
},
{
closed = 1;
nodes = (
(330,274,l),
(114,520,l),
(10,520,l),
(240,258,l),
(240,290,l),
(8,0,l),
(114,0,l)
);
},
{
closed = 1;
nodes = (
(398,0,l),
(398,520,l),
(314,520,l),
(314,0,l)
);
}
);
width = 712;
}
);
unicode = 1078;
},
{
glyphname = "ze-cy";
kernLeft = x;
kernRight = "ze-cy";
lastChange = "2023-07-04 14:09:28 +0000";
layers = (
{
background = {
shapes = (
{
closed = 1;
nodes = (
(86,378,l),
(103,389,o),
(123,401,o),
(140,408,cs),
(163,419,o),
(197,429,o),
(228,430,cs),
(244,429,o),
(259,426,o),
(270,420,cs),
(288,410,o),
(293,395,o),
(294,380,cs),
(293,360,o),
(285,339,o),
(248,334,cs),
(232,332,o),
(208,331,o),
(192,332,cs),
(160,332,l),
(160,226,l),
(192,226,ls),
(210,225,o),
(241,226,o),
(258,226,cs),
(287,223,o),
(312,205,o),
(312,174,cs),
(312,155,o),
(302,136,o),
(282,124,cs),
(267,116,o),
(252,112,o),
(230,112,cs),
(206,112,o),
(170,117,o),
(142,136,cs),
(128,143,o),
(106,161,o),
(94,174,c),
(-14,102,l),
(4,75,o),
(45,38,o),
(80,20,cs),
(117,-1,o),
(167,-15,o),
(228,-16,cs),
(269,-15,o),
(324,-8,o),
(372,22,cs),
(426,56,o),
(451,105,o),
(452,162,cs),
(451,214,o),
(430,256,o),
(396,284,c),
(422,319,o),
(433,355,o),
(434,392,cs),
(433,446,o),
(409,490,o),
(368,518,cs),
(327,545,o),
(267,555,o),
(226,556,cs),
(183,555,o),
(142,544,o),
(108,530,cs),
(66,511,o),
(40,494,o),
(12,470,c)
);
}
);
};
layerId = "1C9972D2-AAA2-4EE5-9F28-188B121D2056";
shapes = (
{
closed = 1;
nodes = (
(116,370,l),
(124,403,o),
(183,451,o),
(230,452,qs),
(273,451,o),
(326,404,o),
(326,368,qs),
(326,333,o),
(277,294,o),
(232,294,qs),
(158,294,l),
(158,220,l),
(236,220,ls),
(290,220,o),
(346,183,o),
(346,146,qs),
(346,108,o),
(286,65,o),
(236,66,qs),
(186,65,o),
(120,106,o),
(112,144,q),
(26,144,l),
(32,94,o),
(90,24,o),
(179,-11,o),
(234,-12,qs),
(290,-11,o),
(380,27,o),
(432,98,o),
(432,146,qs),
(432,197,o),
(375,254,o),
(340,264,q),
(369,275,o),
(411,329,o),
(412,372,qs),
(411,418,o),
(365,489,o),
(284,527,o),
(234,528,qs),
(157,527,o),
(44,444,o),
(36,370,q)
);
}
);
width = 474;
}
);
unicode = 1079;
},
{
glyphname = "ii-cy";
kernLeft = n;
kernRight = u;
lastChange = "2023-07-07 08:55:57 +0000";
layers = (
{
layerId = "1C9972D2-AAA2-4EE5-9F28-188B121D2056";
shapes = (
{
closed = 1;
nodes = (
(490,0,l),
(490,520,l),
(406,520,l),
(122,96,l),
(148,96,l),
(148,520,l),
(64,520,l),
(64,0,l),
(148,0,l),
(432,420,l),
(406,420,l),
(406,0,l)
);
}
);
width = 554;
}
);
metricLeft = n;
metricRight = u;
unicode = 1080;
},
{
glyphname = "ka-cy";
kernLeft = k;
kernRight = k;
lastChange = "2023-07-04 14:09:47 +0000";
layers = (
{
layerId = "1C9972D2-AAA2-4EE5-9F28-188B121D2056";
shapes = (
{
closed = 1;
nodes = (
(64,0,l),
(150,0,l),
(150,520,l),
(64,520,l)
);
},
{
closed = 1;
nodes = (
(368,520,l),
(128,276,l),
(368,0,l),
(480,0,l),
(228,290,l),
(228,266,l),
(476,520,l)
);
}
);
width = 486;
}
);
metricLeft = k;
metricRight = k;
unicode = 1082;
},
{
glyphname = "el-cy";
kernLeft = o;
kernRight = u;
lastChange = "2023-07-14 17:12:53 +0000";
layers = (
{
layerId = "1C9972D2-AAA2-4EE5-9F28-188B121D2056";
shapes = (
{
closed = 1;
nodes = (
(12,76,l),
(12,-2,l),
(36,-2,ls),
(87,-2,o),
(154,37,o),
(190,120,o),
(196,190,qs),
(220,480,l),
(182,444,l),
(436,444,l),
(402,480,l),
(402,0,l),
(488,0,l),
(488,520,l),
(140,520,l),
(114,196,ls),
(107,128,o),
(71,76,o),
(26,76,q)
);
}
);
width = 552;
}
);
metricRight = u;
unicode = 1083;
},
{
glyphname = "em-cy";
kernLeft = m;
kernRight = u;
lastChange = "2023-07-26 12:32:56 +0000";
layers = (
{
layerId = "1C9972D2-AAA2-4EE5-9F28-188B121D2056";
shapes = (
{
closed = 1;
nodes = (
(147,279,o),
(144,377,q),
(147,377,l),
(315,0,l),
(387,0,l),
(551,372,l),
(554,372,l),
(553,275,o),
(553,249,qs),
(553,0,l),
(637,0,l),
(637,520,l),
(514,520,l),
(352,102,l),
(349,102,l),
(167,520,l),
(64,520,l),
(64,0,l),
(147,0,l),
(147,219,ls)
);
}
);
width = 701;
}
);
metricLeft = m;
metricRight = u;
unicode = 1084;
},
{
glyphname = "en-cy";
kernLeft = n;
kernRight = u;
lastChange = "2023-07-04 14:10:09 +0000";
layers = (
{
layerId = "1C9972D2-AAA2-4EE5-9F28-188B121D2056";
shapes = (
{
closed = 1;
nodes = (
(64,0,l),
(150,0,l),
(150,520,l),
(64,520,l)
);
},
{
closed = 1;
nodes = (
(484,520,l),
(398,520,l),
(398,0,l),
(484,0,l)
);
},
{
closed = 1;
nodes = (
(134,238,l),
(414,238,l),
(414,316,l),
(134,316,l)
);
}
);
width = 548;
}
);
metricLeft = m;
metricRight = u;
unicode = 1085;
},
{
glyphname = "pe-cy";
kernLeft = n;
kernRight = u;
lastChange = "2023-07-26 12:58:19 +0000";
layers = (
{
layerId = "1C9972D2-AAA2-4EE5-9F28-188B121D2056";
shapes = (
{
closed = 1;
nodes = (
(482,520,l),
(64,520,l),
(64,0,l),
(150,0,l),
(150,478,l),
(114,444,l),
(430,444,l),
(396,478,l),
(396,0,l),
(482,0,l)
);
}
);
width = 540;
}
);
metricLeft = n;
metricRight = n;
unicode = 1087;
},
{
glyphname = "te-cy";
kernLeft = te;
kernRight = r;
lastChange = "2023-07-04 14:10:47 +0000";
layers = (
{
layerId = "1C9972D2-AAA2-4EE5-9F28-188B121D2056";
shapes = (
{
closed = 1;
nodes = (
(280,0,l),
(282,474,l),
(196,474,l),
(194,0,l)
);
},
{
closed = 1;
nodes = (
(26,520,l),
(26,444,l),
(452,444,l),
(452,520,l)
);
}
);
width = 478;
}
);
unicode = 1090;
},
{
glyphname = "ef-cy";
kernLeft = o;
kernRight = o;
lastChange = "2023-07-07 09:03:49 +0000";
layers = (
{
layerId = "1C9972D2-AAA2-4EE5-9F28-188B121D2056";
shapes = (
{
closed = 1;
nodes = (
(384,704,l),
(300,704,l),
(300,528,l),
(224,526,o),
(105,459,o),
(38,342,o),
(38,252,qs),
(38,176,o),
(105,59,o),
(224,-8,o),
(300,-10,q),
(300,-192,l),
(384,-192,l),
(384,-10,l),
(458,-8,o),
(577,59,o),
(644,176,o),
(644,252,qs),
(644,342,o),
(577,459,o),
(458,528,o),
(384,528,q)
);
},
{
closed = 1;
nodes = (
(300,68,l),
(251,69,o),
(172,113,o),
(125,196,o),
(126,252,qs),
(125,322,o),
(172,405,o),
(249,447,o),
(300,450,q)
);
},
{
closed = 1;
nodes = (
(557,196,o),
(510,113,o),
(431,69,o),
(384,68,q),
(384,450,l),
(431,449,o),
(510,405,o),
(557,322,o),
(558,252,q)
);
}
);
width = 682;
}
);
metricLeft = o;
metricRight = o;
unicode = 1092;
},
{
glyphname = "che-cy";
kernLeft = n;
kernRight = u;
lastChange = "2023-07-04 14:11:19 +0000";
layers = (
{
layerId = "1C9972D2-AAA2-4EE5-9F28-188B121D2056";
shapes = (
{
closed = 1;
nodes = (
(436,520,l),
(350,520,l),
(350,0,l),
(436,0,l)
);
},
{
closed = 1;
nodes = (
(384,310,l),
(357,285,o),
(295,257,o),
(248,258,qs),
(209,257,o),
(153,285,o),
(123,342,o),
(124,384,qs),
(124,520,l),
(38,520,l),
(38,382,ls),
(37,315,o),
(87,224,o),
(178,179,o),
(238,180,qs),
(292,179,o),
(364,211,o),
(388,236,q)
);
}
);
width = 500;
}
);
metricLeft = d;
metricRight = u;
unicode = 1095;
},
{
glyphname = "tse-cy";
kernLeft = n;
kernRight = "tse-cy";
lastChange = "2023-07-04 14:11:11 +0000";
layers = (
{
layerId = "1C9972D2-AAA2-4EE5-9F28-188B121D2056";
shapes = (
{
closed = 1;
nodes = (
(392,520,l),
(392,58,l),
(478,58,l),
(478,520,l)
);
},
{
closed = 1;
nodes = (
(552,-128,l),
(552,78,l),
(114,78,l),
(150,44,l),
(150,520,l),
(64,520,l),
(64,0,l),
(504,0,l),
(470,36,l),
(470,-128,l)
);
}
);
width = 572;
}
);
metricLeft = n;
unicode = 1094;
},
{
glyphname = "sha-cy";
kernLeft = n;
kernRight = u;
lastChange = "2023-07-04 14:12:02 +0000";
layers = (
{
layerId = "1C9972D2-AAA2-4EE5-9F28-188B121D2056";
shapes = (
{
closed = 1;
nodes = (
(344,520,l),
(344,50,l),
(430,50,l),
(430,520,l)
);
},
{
closed = 1;
nodes = (
(624,44,l),
(658,78,l),
(114,78,l),
(150,44,l),
(150,520,l),
(64,520,l),
(64,0,l),
(710,0,l),
(710,520,l),
(624,520,l)
);
}
);
width = 774;
}
);
metricLeft = m;
metricRight = m;
unicode = 1096;
},
{
glyphname = "shcha-cy";
kernLeft = n;
kernRight = "tse-cy";
lastChange = "2023-07-04 14:12:41 +0000";
layers = (
{
layerId = "1C9972D2-AAA2-4EE5-9F28-188B121D2056";
shapes = (
{
closed = 1;
nodes = (
(784,-154,l),
(784,72,l),
(640,72,l),
(638,0,l),
(712,0,l),
(710,-154,l)
);
},
{
ref = "sha-cy";
}
);
width = 804;
}
);
metricLeft = m;
unicode = 1097;
},
{
glyphname = "softsign-cy";
kernLeft = n;
kernRight = b;
lastChange = "2023-07-04 14:13:08 +0000";
layers = (
{
layerId = "1C9972D2-AAA2-4EE5-9F28-188B121D2056";
shapes = (
{
closed = 1;
nodes = (
(140,342,l),
(140,266,l),
(252,266,ls),
(299,265,o),
(353,214,o),
(354,172,qs),
(353,130,o),
(299,76,o),
(252,76,qs),
(114,76,l),
(150,42,l),
(150,520,l),
(64,520,l),
(64,0,l),
(262,0,ls),
(314,0,o),
(395,45,o),
(439,123,o),
(440,172,qs),
(439,221,o),
(395,298,o),
(315,342,o),
(262,342,q)
);
}
);
width = 476;
}
);
metricLeft = n;
unicode = 1100;
},
{
glyphname = "yeru-cy";
kernLeft = n;
kernRight = u;
lastChange = "2023-07-26 13:00:48 +0000";
layers = (
{
layerId = "1C9972D2-AAA2-4EE5-9F28-188B121D2056";
shapes = (
{
closed = 1;
nodes = (
(538,0,l),
(628,0,l),
(628,520,l),
(538,520,l)
);
},
{
ref = "softsign-cy";
}
);
width = 686;
}
);
metricLeft = n;
metricRight = n;
unicode = 1099;
},
{
glyphname = "hardsign-cy";
kernRight = b;
lastChange = "2023-07-04 14:12:30 +0000";
layers = (
{
layerId = "1C9972D2-AAA2-4EE5-9F28-188B121D2056";
shapes = (
{
closed = 1;
nodes = (
(246,341,l),
(246,265,l),
(358,265,ls),
(406,265,o),
(460,214,o),
(460,172,qs),
(460,130,o),
(406,76,o),
(358,76,qs),
(221,76,l),
(256,41,l),
(256,520,l),
(32,520,l),
(32,444,l),
(206,444,l),
(170,480,l),
(170,0,l),
(368,0,ls),
(421,0,o),
(502,45,o),
(546,123,o),
(546,172,qs),
(546,221,o),
(502,298,o),
(422,341,o),
(369,341,q),
(369,341,l)
);
}
);
width = 584;
}
);
metricRight = b;
unicode = 1098;
},
{
glyphname = "ereversed-cy";
kernLeft = o;
kernRight = o;
lastChange = "2023-07-04 14:13:14 +0000";
layers = (
{
layerId = "1C9972D2-AAA2-4EE5-9F28-188B121D2056";
shapes = (
{
closed = 1;
nodes = (
(212,66,o),
(156,94,o),
(127,134,o),
(122,158,q),
(38,158,l),
(43,111,o),
(98,34,o),
(192,-11,o),
(254,-12,qs),
(324,-11,o),
(432,55,o),
(491,174,o),
(492,252,qs),
(491,330,o),
(433,450,o),
(326,515,o),
(256,516,qs),
(191,515,o),
(98,468,o),
(47,394,o),
(42,354,q),
(126,354,l),
(136,387,o),
(199,438,o),
(256,438,qs),
(300,438,o),
(368,395,o),
(404,313,o),
(404,256,qs),
(404,248,ls),
(404,192,o),
(367,110,o),
(298,66,o),
(254,66,q),
(254,66,l)
);
},
{
closed = 1;
nodes = (
(438,298,l),
(180,298,l),
(180,224,l),
(438,224,l),
(438,224,l)
);
}
);
width = 530;
}
);
metricLeft = o;
metricRight = o;
unicode = 1101;
},
{
glyphname = "iu-cy";
kernLeft = n;
kernRight = o;
lastChange = "2023-07-04 14:13:21 +0000";
layers = (
{
layerId = "1C9972D2-AAA2-4EE5-9F28-188B121D2056";
shapes = (
{
closed = 1;
nodes = (
(282,302,l),
(134,302,l),
(134,224,l),
(282,224,l)
);
},
{
closed = 1;
nodes = (
(64,0,l),
(150,0,l),
(150,520,l),
(64,520,l)
);
},
{
closed = 1;
nodes = (
(411,522,o),
(302,453,o),
(242,330,o),
(242,254,qs),
(242,178,o),
(302,56,o),
(411,-11,o),
(480,-10,qs),
(551,-11,o),
(659,56,o),
(716,178,o),
(716,254,qs),
(716,330,o),
(659,453,o),
(551,522,o),
(480,522,q)
);
},
{
closed = 1;
nodes = (
(434,67,o),
(366,113,o),
(330,199,o),
(330,254,qs),
(330,309,o),
(366,393,o),
(434,442,o),
(480,442,qs),
(526,442,o),
(594,393,o),
(628,309,o),
(628,254,qs),
(628,199,o),
(594,113,o),
(526,67,o),
(480,68,q)
);
}
);
width = 754;
}
);
metricLeft = n;
metricRight = o;
unicode = 1102;
},
{
glyphname = "ia-cy";
kernLeft = a;
kernRight = u;
lastChange = "2023-07-04 14:13:23 +0000";
layers = (
{
layerId = "1C9972D2-AAA2-4EE5-9F28-188B121D2056";
shapes = (
{
closed = 1;
nodes = (
(390,446,l),
(346,492,l),
(346,0,l),
(432,0,l),
(432,520,l),
(232,520,ls),
(176,520,o),
(95,476,o),
(53,401,o),
(54,354,qs),
(55,307,o),
(97,231,o),
(177,188,o),
(232,188,qs),
(362,188,l),
(362,262,l),
(242,262,ls),
(210,262,o),
(163,285,o),
(139,327,o),
(140,354,qs),
(141,394,o),
(194,445,o),
(242,446,q)
);
},
{
closed = 1;
nodes = (
(126,0,l),
(286,228,l),
(186,228,l),
(26,0,l)
);
}
);
width = 496;
}
);
metricRight = u;
unicode = 1103;
},
{
color = 1;
glyphname = zero;
lastChange = "2023-07-25 17:42:35 +0000";
layers = (
{
layerId = "1C9972D2-AAA2-4EE5-9F28-188B121D2056";
shapes = (
{
closed = 1;
nodes = (
(128,705,o),
(56,532,o),
(56,352,cs),
(56,140,o),
(163,-14,o),
(320,-12,c),
(493,-12,o),
(588,122,o),
(590,352,c),
(588,569,o),
(486,706,o),
(318,710,c)
);
},
{
closed = 1;
nodes = (
(179,70,o),
(140,215,o),
(140,352,cs),
(140,493,o),
(178,625,o),
(318,628,c),
(471,625,o),
(502,463,o),
(502,352,cs),
(502,210,o),
(459,70,o),
(320,70,cs)
);
}
);
width = 646;
}
);
unicode = 48;
},
{
glyphname = one;
lastChange = "2023-07-26 20:08:14 +0000";
layers = (
{
layerId = "1C9972D2-AAA2-4EE5-9F28-188B121D2056";
shapes = (
{
closed = 1;
nodes = (
(314,0,l),
(314,700,l),
(226,700,l),
(42,576,l),
(42,480,l),
(226,604,l),
(226,0,l)
);
}
);
width = 400;
}
);
metricLeft = O;
metricRight = H;
note = one;
unicode = 49;
},
{
color = 1;
glyphname = two;
lastChange = "2023-07-26 20:05:22 +0000";
layers = (
{
background = {
shapes = (
{
closed = 1;
nodes = (
(200,234,l),
(60,66,l),
(60,0,l),
(504,0,l),
(504,82,l),
(184,82,l),
(274,196,l),
(342,276,ls),
(416,363,o),
(476,467,o),
(478,520,q),
(478,572,o),
(434,656,o),
(343,712,o),
(278,712,qs),
(209,712,o),
(106,658,o),
(48,559,o),
(48,514,q),
(134,514,l),
(140,570,o),
(181,606,o),
(233,630,o),
(278,630,qs),
(324,630,o),
(366,600,o),
(392,554,o),
(392,522,qs),
(392,489,o),
(356,430,o),
(302,353,o),
(274,320,qs)
);
}
);
};
layerId = "1C9972D2-AAA2-4EE5-9F28-188B121D2056";
shapes = (
{
closed = 1;
nodes = (
(52,61,l),
(52,0,l),
(518,0,l),
(518,82,l),
(172,82,l),
(396,296,l),
(468,368,o),
(512,425,o),
(512,510,cs),
(512,632,o),
(409,712,o),
(280,712,cs),
(149,712,o),
(48,614,o),
(48,514,c),
(136,514,l),
(140,577,o),
(201,630,o),
(280,630,cs),
(365,630,o),
(424,576,o),
(424,500,cs),
(424,421,o),
(376,387,o),
(344,354,cs)
);
}
);
width = 552;
}
);
note = two;
unicode = 50;
},
{
glyphname = three;
lastChange = "2023-07-26 20:04:08 +0000";
layers = (
{
layerId = "1C9972D2-AAA2-4EE5-9F28-188B121D2056";
shapes = (
{
closed = 1;
nodes = (
(126,522,l),
(135,573,o),
(220,630,o),
(282,630,qs),
(325,630,o),
(387,602,o),
(422,551,o),
(422,516,qs),
(422,483,o),
(392,430,o),
(331,400,o),
(286,400,qs),
(186,400,l),
(186,320,l),
(292,320,ls),
(363,319,o),
(448,259,o),
(448,200,qs),
(448,160,o),
(410,102,o),
(341,70,o),
(292,70,qs),
(244,70,o),
(170,100,o),
(126,151,o),
(120,184,q),
(30,184,l),
(37,123,o),
(107,34,o),
(222,-12,o),
(292,-12,qs),
(367,-12,o),
(477,42,o),
(540,137,o),
(540,198,qs),
(540,247,o),
(498,319,o),
(440,359,o),
(414,366,q),
(439,375,o),
(485,417,o),
(514,479,o),
(514,518,qs),
(514,574,o),
(456,663,o),
(349,714,o),
(282,714,qs),
(219,714,o),
(115,670,o),
(44,584,o),
(38,522,q)
);
}
);
width = 590;
}
);
note = three;
unicode = 51;
},
{
glyphname = four;
kernLeft = A;
kernRight = o;
lastChange = "2023-07-26 20:00:58 +0000";
layers = (
{
layerId = "1C9972D2-AAA2-4EE5-9F28-188B121D2056";
shapes = (
{
closed = 1;
nodes = (
(468,168,l),
(560,168,l),
(560,250,l),
(468,250,l),
(472,700,l),
(326,700,l),
(40,250,l),
(40,168,l),
(382,168,l),
(382,0,l),
(468,0,l)
);
},
{
closed = 1;
nodes = (
(376,620,l),
(382,620,l),
(382,250,l),
(132,250,l)
);
}
);
width = 590;
}
);
note = four;
unicode = 52;
},
{
glyphname = five;
kernRight = fove;
lastChange = "2023-07-14 16:48:25 +0000";
layers = (
{
layerId = "1C9972D2-AAA2-4EE5-9F28-188B121D2056";
shapes = (
{
closed = 1;
nodes = (
(534,364,o),
(425,458,o),
(310,458,cs),
(253,458,o),
(184,436,o),
(140,392,c),
(164,618,l),
(492,618,l),
(492,700,l),
(100,700,l),
(60,322,l),
(160,322,l),
(192,351,o),
(220,382,o),
(288,380,cs),
(390,377,o),
(444,305,o),
(446,226,cs),
(448,157,o),
(408,70,o),
(292,70,cs),
(188,70,o),
(132,144,o),
(130,184,c),
(42,184,l),
(44,126,o),
(123,-14,o),
(294,-12,cs),
(431,-10,o),
(534,96,o),
(534,230,cs)
);
}
);
width = 576;
}
);
metricLeft = O;
metricRight = O;
note = five;
unicode = 53;
},
{
glyphname = six;
lastChange = "2023-07-14 16:48:34 +0000";
layers = (
{
layerId = "1C9972D2-AAA2-4EE5-9F28-188B121D2056";
shapes = (
{
closed = 1;
nodes = (
(451,-11,o),
(555,90,o),
(556,228,cs),
(555,360,o),
(459,459,o),
(324,458,cs),
(233,459,o),
(159,414,o),
(128,346,c),
(128,346,l),
(129,531,o),
(195,629,o),
(312,630,cs),
(381,629,o),
(438,595,o),
(456,530,c),
(544,532,l),
(523,641,o),
(432,712,o),
(312,712,cs),
(143,712,o),
(40,574,o),
(42,338,cs),
(40,262,o),
(53,200,o),
(76,146,cs),
(119,46,o),
(202,-11,o),
(308,-12,cs)
);
},
{
closed = 1;
nodes = (
(217,70,o),
(147,137,o),
(148,226,cs),
(147,316,o),
(218,377,o),
(310,378,cs),
(403,377,o),
(467,316,o),
(466,224,cs),
(467,136,o),
(396,70,o),
(306,70,cs)
);
}
);
width = 598;
}
);
metricLeft = O;
metricRight = O;
note = six;
unicode = 54;
},
{
glyphname = seven;
kernLeft = seven;
lastChange = "2023-07-14 14:14:45 +0000";
layers = (
{
layerId = "1C9972D2-AAA2-4EE5-9F28-188B121D2056";
shapes = (
{
closed = 1;
nodes = (
(378,618,l),
(128,0,l),
(224,0,l),
(472,628,l),
(472,700,l),
(34,700,l),
(34,618,l)
);
}
);
width = 512;
}
);
note = seven;
unicode = 55;
},
{
glyphname = eight;
lastChange = "2023-07-14 16:24:28 +0000";
layers = (
{
layerId = "1C9972D2-AAA2-4EE5-9F28-188B121D2056";
shapes = (
{
closed = 1;
nodes = (
(456,-13,o),
(561,70,o),
(562,192,cs),
(561,276,o),
(514,349,o),
(422,370,c),
(499,396,o),
(534,455,o),
(534,530,cs),
(534,636,o),
(438,713,o),
(308,714,cs),
(176,713,o),
(79,635,o),
(80,530,cs),
(79,455,o),
(107,395,o),
(184,370,c),
(92,349,o),
(52,277,o),
(52,192,cs),
(52,71,o),
(158,-13,o),
(308,-10,cs)
);
},
{
closed = 1;
nodes = (
(210,70,o),
(140,120,o),
(140,196,cs),
(140,272,o),
(210,324,o),
(308,326,cs),
(404,324,o),
(475,273,o),
(474,196,cs),
(475,120,o),
(404,70,o),
(308,72,cs)
);
},
{
closed = 1;
nodes = (
(226,407,o),
(167,452,o),
(168,520,cs),
(167,590,o),
(226,632,o),
(308,632,cs),
(388,632,o),
(446,590,o),
(446,520,cs),
(446,452,o),
(388,407,o),
(308,406,cs)
);
}
);
width = 614;
}
);
note = eight;
unicode = 56;
},
{
glyphname = .notdef;
lastChange = "2023-07-26 18:28:14 +0000";
layers = (
{
layerId = "1C9972D2-AAA2-4EE5-9F28-188B121D2056";
shapes = (
{
closed = 1;
nodes = (
(1083,140,o),
(1150,208,o),
(1150,291,c),
(1150,374,o),
(1083,442,o),
(999,442,c),
(916,442,o),
(848,374,o),
(848,291,c),
(848,208,o),
(916,140,o),
(999,140,c)
);
},
{
closed = 1;
nodes = (
(211,148,l),
(211,434,l),
(60,434,l),
(60,148,l)
);
},
{
closed = 1;
nodes = (
(523,148,l),
(523,434,l),
(381,434,l),
(381,331,l),
(239,440,l),
(239,148,l)
);
},
{
closed = 1;
nodes = (
(833,148,l),
(833,434,l),
(691,434,l),
(691,331,l),
(549,440,l),
(549,148,l)
);
}
);
width = 1210.16;
}
);
note = ".notdef";
},
{
glyphname = period;
kernLeft = comma;
lastChange = "2023-07-25 11:27:47 +0000";
layers = (
{
guides = (
{
angle = 180;
pos = (-26,104);
}
);
layerId = "1C9972D2-AAA2-4EE5-9F28-188B121D2056";
shapes = (
{
closed = 1;
nodes = (
(58,0,l),
(172,0,l),
(172,114,l),
(58,114,l)
);
}
);
width = 230;
}
);
note = period;
unicode = 46;
},
{
glyphname = comma;
kernLeft = comma;
kernRight = comma;
lastChange = "2023-07-25 15:32:16 +0000";
layers = (
{
layerId = "1C9972D2-AAA2-4EE5-9F28-188B121D2056";
shapes = (
{
closed = 1;
nodes = (
(58,0,l),
(116,0,l),
(44,-120,l),
(108,-120,l),
(172,-12,l),
(172,114,l),
(58,114,l)
);
}
);
width = 230;
}
);
note = comma;
unicode = 44;
},
{
glyphname = exclam;
kernLeft = exclam;
lastChange = "2023-07-25 15:05:50 +0000";
layers = (
{
layerId = "1C9972D2-AAA2-4EE5-9F28-188B121D2056";
shapes = (
{
closed = 1;
nodes = (
(194,206,l),
(194,710,l),
(106,710,l),
(106,206,l)
);
},
{
pos = (35,0);
ref = period;
}
);
width = 325;
}
);
note = exclam;
unicode = 33;
},
{
glyphname = question;
kernLeft = question;
kernRight = question;
lastChange = "2023-07-25 17:45:07 +0000";
layers = (
{
layerId = "1C9972D2-AAA2-4EE5-9F28-188B121D2056";
shapes = (
{
pos = (130,0);
ref = period;
},
{
closed = 1;
nodes = (
(319,299,o),
(360,334,qs),
(459,436,o),
(456,532,qs),
(455,613,o),
(346,712,o),
(254,714,qs),
(156,714,o),
(40,598,o),
(46,502,q),
(134,502,l),
(135,565,o),
(201,633,o),
(254,632,qs),
(306,631,o),
(364,579,o),
(368,532,qs),
(368,495,o),
(335,421,o),
(298,390,qs),
(243,344,o),
(200,257,o),
(202,192,q),
(290,192,l),
(288,238,o)
);
}
);
width = 526;
}
);
note = question;
unicode = 63;
},
{
glyphname = bullet;
kernLeft = bullet;
lastChange = "2023-07-25 11:20:22 +0000";
layers = (
{
layerId = "1C9972D2-AAA2-4EE5-9F28-188B121D2056";
shapes = (
{
closed = 1;
nodes = (
(80,198,l),
(294,198,l),
(294,412,l),
(80,412,l)
);
}
);
width = 374;
}
);
unicode = 8226;
},
{
glyphname = asterisk;
kernLeft = asterisk;
lastChange = "2020-04-19 16:54:59 +0000";
layers = (
{
layerId = "1C9972D2-AAA2-4EE5-9F28-188B121D2056";
shapes = (
{
closed = 1;
nodes = (
(233,609,l),
(351,657,l),
(374,590,l),
(249,562,l),
(332,452,l),
(277,411,l),
(202,529,l),
(132,411,l),
(76,452,l),
(158,562,l),
(35,590,l),
(56,658,l),
(176,609,l),
(169,743,l),
(241,743,l)
);
}
);
width = 409;
}
);
note = asterisk;
unicode = 42;
},
{
glyphname = numbersign;
kernLeft = numbersign;
kernRight = numbersign;
lastChange = "2020-04-19 16:54:59 +0000";
layers = (
{
layerId = "1C9972D2-AAA2-4EE5-9F28-188B121D2056";
shapes = (
{
closed = 1;
nodes = (
(372,708,l),
(286,708,l),
(234,516,l),
(74,516,l),
(74,434,l),
(211,434,l),
(170,275,l),
(10,275,l),
(10,193,l),
(146,193,l),
(96,1,l),
(182,1,l),
(233,193,l),
(391,193,l),
(341,1,l),
(427,1,l),
(478,193,l),
(640,193,l),
(640,275,l),
(501,275,l),
(542,434,l),
(704,434,l),
(704,516,l),
(566,516,l),
(617,708,l),
(531,708,l),
(479,516,l),
(321,516,l)
);
},
{
closed = 1;
nodes = (
(256,275,l),
(297,434,l),
(456,434,l),
(415,275,l)
);
}
);
width = 714;
}
);
note = numbersign;
unicode = 35;
},
{
glyphname = slash;
kernLeft = slash;
kernRight = slash;
lastChange = "2023-07-14 17:05:20 +0000";
layers = (
{
guides = (
{
pos = (-160,713);
},
{
pos = (-199,-127);
}
);
layerId = "1C9972D2-AAA2-4EE5-9F28-188B121D2056";
shapes = (
{
closed = 1;
nodes = (
(268,714,l),
(6,-68,l),
(94,-68,l),
(356,714,l)
);
}
);
width = 359;
}
);
note = slash;
unicode = 47;
},
{
glyphname = backslash;
kernLeft = backslash;
kernRight = backslash;
lastChange = "2023-07-25 15:04:57 +0000";
layers = (
{
guides = (
{
pos = (272,714);
},
{
pos = (232,-126);
}
);
layerId = "1C9972D2-AAA2-4EE5-9F28-188B121D2056";
shapes = (
{
closed = 1;
nodes = (
(266,-68,l),
(354,-68,l),
(92,714,l),
(4,714,l)
);
}
);
width = 360;
}
);
unicode = 92;
},
{
glyphname = hyphen;
lastChange = "2020-04-19 16:54:59 +0000";
layers = (
{
layerId = "1C9972D2-AAA2-4EE5-9F28-188B121D2056";
shapes = (
{
closed = 1;
nodes = (
(289,240,l),
(289,316,l),
(70,316,l),
(70,240,l)
);
}
);
width = 359;
}
);
note = hyphen;
unicode = 45;
},
{
glyphname = endash;
kernRight = hyphen;
lastChange = "2020-04-19 16:54:59 +0000";
layers = (
{
guides = (
{
pos = (-29,713);
},
{
pos = (-29,713);
},
{
pos = (7,287);
},
{
pos = (7,206);
}
);
layerId = "1C9972D2-AAA2-4EE5-9F28-188B121D2056";
shapes = (
{
closed = 1;
nodes = (
(480,240,l),
(480,316,l),
(40,316,l),
(40,240,l)
);
}
);
width = 520;
}
);
unicode = 8211;
},
{
glyphname = emdash;
kernLeft = hyphen;
kernRight = hyphen;
lastChange = "2023-07-14 16:36:34 +0000";
layers = (
{
layerId = "1C9972D2-AAA2-4EE5-9F28-188B121D2056";
shapes = (
{
closed = 1;
nodes = (
(820,238,l),
(820,320,l),
(40,320,l),
(40,238,l)
);
}
);
width = 860;
}
);
unicode = 8212;
},
{
glyphname = parenleft;
kernLeft = parenleft;
kernRight = parenleft;
lastChange = "2023-07-25 15:30:29 +0000";
layers = (
{
guides = (
{
pos = (-2,714);
},
{
pos = (-40,-126);
},
{
pos = (-12,746);
}
);
layerId = "1C9972D2-AAA2-4EE5-9F28-188B121D2056";
shapes = (
{
closed = 1;
nodes = (
(244,712,l),
(222,687,o),
(204,660,o),
(186,630,cs),
(170,599,o),
(155,567,o),
(144,532,cs),
(131,495,o),
(122,458,o),
(114,416,cs),
(108,378,o),
(104,336,o),
(104,292,cs),
(104,248,o),
(108,207,o),
(114,168,cs),
(122,127,o),
(131,89,o),
(144,54,cs),
(155,17,o),
(170,-15,o),
(186,-46,cs),
(204,-76,o),
(222,-103,o),
(244,-128,c),
(336,-128,l),
(318,-103,o),
(300,-77,o),
(284,-48,cs),
(265,-19,o),
(249,12,o),
(238,46,cs),
(223,81,o),
(212,119,o),
(202,158,cs),
(195,199,o),
(191,244,o),
(190,292,cs),
(191,340,o),
(195,385,o),
(202,426,cs),
(212,465,o),
(223,503,o),
(238,538,cs),
(249,572,o),
(265,603,o),
(284,632,cs),
(300,661,o),
(318,687,o),
(336,712,c)
);
}
);
width = 384;
}
);
note = parenleft;
unicode = 40;
},
{
glyphname = braceleft;
kernLeft = braceleft;
kernRight = braceleft;
lastChange = "2023-07-25 15:30:59 +0000";
layers = (
{
guides = (
{
pos = (-42,746);
},
{
pos = (-80,-144);
}
);
layerId = "1C9972D2-AAA2-4EE5-9F28-188B121D2056";
shapes = (
{
closed = 1;
nodes = (
(386,-144,l),
(290,-144,ls),
(198,-144,o),
(162,-89,o),
(162,-6,cs),
(162,190,ls),
(161,235,o),
(123,266,o),
(64,264,c),
(64,340,l),
(119,336,o),
(148,367,o),
(148,408,cs),
(148,604,ls),
(148,688,o),
(199,744,o),
(296,744,cs),
(386,744,l),
(386,668,l),
(294,668,ls),
(247,667,o),
(230,642,o),
(230,598,cs),
(230,418,ls),
(230,352,o),
(199,294,o),
(130,286,c),
(130,316,l),
(197,310,o),
(244,249,o),
(244,186,cs),
(244,4,ls),
(244,-41,o),
(248,-67,o),
(294,-66,cs),
(386,-66,l)
);
}
);
width = 406;
}
);
unicode = 123;
},
{
glyphname = braceright;
kernLeft = parenright;
kernRight = parenright;
lastChange = "2023-07-25 15:31:03 +0000";
layers = (
{
guides = (
{
pos = (-16,714);
},
{
pos = (-54,-126);
},
{
angle = 180;
pos = (38,634);
},
{
angle = 180;
pos = (38,-46);
}
);
layerId = "1C9972D2-AAA2-4EE5-9F28-188B121D2056";
shapes = (
{
closed = 1;
nodes = (
(112,-66,ls),
(157,-67,o),
(174,-41,o),
(176,4,cs),
(178,186,ls),
(179,249,o),
(208,310,o),
(276,316,c),
(276,286,l),
(206,294,o),
(178,352,o),
(178,418,cs),
(178,598,ls),
(178,642,o),
(158,667,o),
(112,668,cs),
(20,668,l),
(20,744,l),
(110,744,ls),
(206,744,o),
(260,688,o),
(260,604,cs),
(260,408,ls),
(260,367,o),
(286,336,o),
(342,340,c),
(342,264,l),
(282,266,o),
(261,235,o),
(260,190,cs),
(258,-6,ls),
(256,-89,o),
(207,-144,o),
(116,-144,cs),
(20,-144,l),
(20,-66,l)
);
}
);
width = 406;
}
);
unicode = 125;
},
{
glyphname = bracketleft;
kernLeft = parenleft;
kernRight = parenleft;
lastChange = "2023-07-25 15:31:24 +0000";
layers = (
{
guides = (
{
pos = (-20,746);
},
{
pos = (-60,-144);
},
{
angle = 180;
pos = (32,634);
},
{
angle = 180;
pos = (32,-46);
}
);
layerId = "1C9972D2-AAA2-4EE5-9F28-188B121D2056";
shapes = (
{
closed = 1;
nodes = (
(120,-144,l),
(120,746,l),
(334,746,l),
(334,670,l),
(202,670,l),
(202,-68,l),
(334,-68,l),
(334,-144,l)
);
}
);
width = 374;
}
);
unicode = 91;
},
{
glyphname = bracketright;
kernLeft = parenright;
kernRight = parenright;
lastChange = "2023-07-25 15:31:29 +0000";
layers = (
{
guides = (
{
pos = (-124,714);
},
{
pos = (-162,-126);
}
);
layerId = "1C9972D2-AAA2-4EE5-9F28-188B121D2056";
shapes = (
{
closed = 1;
nodes = (
(40,-68,l),
(172,-68,l),
(172,670,l),
(40,670,l),
(40,746,l),
(254,746,l),
(254,-144,l),
(40,-144,l)
);
}
);
width = 374;
}
);
unicode = 93;
},
{
glyphname = guilsinglleft;
kernLeft = less;
kernRight = less;
lastChange = "2023-07-25 15:33:35 +0000";
layers = (
{
layerId = "1C9972D2-AAA2-4EE5-9F28-188B121D2056";
shapes = (
{
closed = 1;
nodes = (
(118,262,l),
(246,86,l),
(154,84,l),
(46,226,l),
(46,304,l),
(154,442,l),
(248,442,l)
);
}
);
width = 300;
}
);
unicode = 8249;
},
{
glyphname = quotesingle;
kernLeft = quotesingle;
kernRight = quotesingle;
lastChange = "2020-04-19 16:54:59 +0000";
layers = (
{
layerId = "1C9972D2-AAA2-4EE5-9F28-188B121D2056";
shapes = (
{
closed = 1;
nodes = (
(60,520,l),
(142,520,l),
(142,713,l),
(60,713,l)
);
}
);
width = 203;
}
);
note = quotesingle;
unicode = 39;
},
{
glyphname = at;
kernLeft = at;
kernRight = at;
lastChange = "2023-07-25 16:40:08 +0000";
layers = (
{
layerId = "1C9972D2-AAA2-4EE5-9F28-188B121D2056";
shapes = (
{
closed = 1;
nodes = (
(62.667,34.667,o),
(252.667,-90.667,o),
(434,-96,cs),
(475.333,-97.333,o),
(552,-100,o),
(634,-72,c),
(630,-8,l),
(571.333,-28,o),
(508.667,-34.667,o),
(442,-28,cs),
(263.333,-10.667,o),
(136.667,86,o),
(138,294,cs),
(136.667,500.667,o),
(260,642.667,o),
(460,644,cs),
(634.667,642.667,o),
(768,533.333,o),
(776,368,cs),
(782.667,232,o),
(760,167,o),
(686,162,c),
(632,164,o),
(626,196.667,o),
(626,238,cs),
(627.333,312,o),
(628,354,o),
(628,364,cs),
(628,496,l),
(556,496,l),
(556,438,l),
(531,480,o),
(501,506,o),
(446,506,cs),
(349,506,o),
(264,429,o),
(264,306,cs),
(264,189,o),
(332,102,o),
(422,100,cs),
(458,99,o),
(526.667,110.667,o),
(572,188,c),
(577.333,126.667,o),
(636,95,o),
(696,94,cs),
(830,92,o),
(856,250.667,o),
(852,368,cs),
(849.333,453.333,o),
(797.333,562,o),
(728,618,cs),
(658.667,674,o),
(570,710,o),
(470,710,cs),
(211.333,710,o),
(62.667,526.667,o),
(64,288,cs)
);
},
{
closed = 1;
nodes = (
(342,399.333,o),
(399,441,o),
(448,442,cs),
(497,443,o),
(560,401.333,o),
(556,308,cs),
(552.442,219.044,o),
(492,166,o),
(438,166,cs),
(384,166,o),
(342,218,o),
(342,306,cs)
);
}
);
width = 916;
}
);
note = at;
unicode = 64;
},
{
glyphname = ampersand;
lastChange = "2023-07-25 17:58:12 +0000";
layers = (
{
background = {
shapes = (
{
closed = 1;
nodes = (
(-8892,300,l),
(-8892,428,l),
(-9110,428,l),
(-9110,366,l),
(-9110,284,l),
(-9256,418,l),
(-9273,434,o),
(-9293,451,o),
(-9304,464,c),
(-9320,480,o),
(-9334,501,o),
(-9334,526,cs),
(-9334,562,o),
(-9321,584,o),
(-9290,598,c),
(-9276,603,o),
(-9259,606,o),
(-9240,606,cs),
(-9216,606,o),
(-9187,601,o),
(-9166,584,c),
(-9157,574,o),
(-9152,563,o),
(-9148,548,c),
(-9014,574,l),
(-9022,607,o),
(-9039,641,o),
(-9064,668,c),
(-9107,714,o),
(-9170,733,o),
(-9236,734,cs),
(-9269,733,o),
(-9304,730,o),
(-9338,718,c),
(-9420,689,o),
(-9471,615,o),
(-9470,528,cs),
(-9471,475,o),
(-9453,438,o),
(-9416,398,c),
(-9430,387,o),
(-9443,376,o),
(-9454,364,c),
(-9489,322,o),
(-9505,268,o),
(-9504,212,cs),
(-9503,153,o),
(-9485,103,o),
(-9446,62,c),
(-9399,9,o),
(-9324,-15,o),
(-9244,-14,cs),
(-9220,-15,o),
(-9196,-13,o),
(-9170,-8,c),
(-9128,-2,o),
(-9082,16,o),
(-9044,50,c),
(-8978,-14,l),
(-8890,80,l),
(-8978,160,l),
(-8975,177,o),
(-8973,194,o),
(-8972,210,c),
(-8972,300,l)
);
},
{
closed = 1;
nodes = (
(-9209,115,o),
(-9223,114,o),
(-9238,114,cs),
(-9275,114,o),
(-9327,125,o),
(-9348,154,c),
(-9362,170,o),
(-9368,190,o),
(-9368,220,cs),
(-9368,243,o),
(-9363,262,o),
(-9350,278,c),
(-9344,287,o),
(-9332,296,o),
(-9318,302,c),
(-9142,140,l),
(-9156,130,o),
(-9174,122,o),
(-9194,118,c)
);
}
);
};
layerId = "1C9972D2-AAA2-4EE5-9F28-188B121D2056";
shapes = (
{
closed = 1;
nodes = (
(586,0,l),
(696,0,l),
(572,130,l),
(676,266,l),
(676,378,l),
(520,180,l),
(344,374,l),
(450,432,o),
(494,483,o),
(494,554,cs),
(494,645,o),
(420,710,o),
(316,710,cs),
(216,710,o),
(141,644,o),
(140,554,cs),
(141,505,o),
(165,461,o),
(228,394,c),
(223,392,o),
(215,387,o),
(200,378,cs),
(108,331,o),
(64,268,o),
(64,186,cs),
(64,71,o),
(160,-10,o),
(298,-10,cs),
(381,-10,o),
(461,19,o),
(522,72,c)
);
},
{
closed = 1;
nodes = (
(255,332,o),
(268,340,o),
(272,342,c),
(470,126,l),
(433,87,o),
(368,62,o),
(306,62,cs),
(212,62,o),
(150,114,o),
(148,192,cs),
(150,247,o),
(179,285,o),
(250,330,cs)
);
},
{
closed = 1;
nodes = (
(244,479,o),
(223,512,o),
(222,550,cs),
(223,604,o),
(263,643,o),
(316,642,cs),
(374,643,o),
(411,606,o),
(410,552,cs),
(411,502,o),
(382,467,o),
(298,426,c)
);
}
);
width = 762;
}
);
note = ampersand;
unicode = 38;
},
{
glyphname = paragraph;
lastChange = "2023-07-26 18:34:51 +0000";
layers = (
{
layerId = "1C9972D2-AAA2-4EE5-9F28-188B121D2056";
shapes = (
{
closed = 1;
nodes = (
(271,700,l),
(182,700,l),
(96,700,o),
(-3,598,o),
(-3,444,o),
(98,342,o),
(184,342,q),
(184,-132,l),
(271,-132,l),
(271,627,l)
);
},
{
closed = 1;
nodes = (
(342,-133,l),
(430,-133,l),
(430,700,l),
(342,700,l)
);
}
);
width = 562;
}
);
note = paragraph;
unicode = 182;
},
{
glyphname = copyright;
lastChange = "2023-07-25 17:36:14 +0000";
layers = (
{
layerId = "1C9972D2-AAA2-4EE5-9F28-188B121D2056";
shapes = (
{
closed = 1;
nodes = (
(668,-96,o),
(833,77,o),
(836,308,cs),
(833,536,o),
(668,708,o),
(444,708,cs),
(216,708,o),
(39,536,o),
(42,308,cs),
(39,77,o),
(216,-96,o),
(444,-94,cs)
);
},
{
closed = 1;
nodes = (
(257,-25,o),
(111,117,o),
(114,308,cs),
(111,496,o),
(257,637,o),
(444,636,cs),
(626,637,o),
(761,496,o),
(760,308,cs),
(761,117,o),
(626,-25,o),
(444,-22,cs)
);
},
{
closed = 1;
nodes = (
(630,382,l),
(620,456,o),
(555,520,o),
(450,522,cs),
(328,520,o),
(250,437,o),
(252,308,cs),
(250,174,o),
(328,92,o),
(450,92,cs),
(554,92,o),
(620,152,o),
(630,230,c),
(562,232,l),
(550,182,o),
(507,155,o),
(450,154,cs),
(371,155,o),
(321,212,o),
(322,308,cs),
(321,400,o),
(371,457,o),
(450,460,cs),
(512,457,o),
(552,423,o),
(562,380,c)
);
}
);
width = 878;
}
);
metricLeft = O;
metricRight = O;
unicode = 169;
},
{
glyphname = registered;
lastChange = "2023-07-26 18:35:05 +0000";
layers = (
{
layerId = "1C9972D2-AAA2-4EE5-9F28-188B121D2056";
shapes = (
{
closed = 1;
nodes = (
(430,224,o),
(541,332,o),
(540,470,cs),
(541,607,o),
(430,713,o),
(292,712,cs),
(151,713,o),
(41,605,o),
(42,470,cs),
(41,332,o),
(151,224,o),
(292,226,cs)
);
},
{
closed = 1;
nodes = (
(184,277,o),
(99,362,o),
(98,470,cs),
(99,577,o),
(184,662,o),
(290,662,cs),
(399,662,o),
(484,577,o),
(484,470,cs),
(484,362,o),
(399,277,o),
(292,276,cs)
);
},
{
closed = 1;
nodes = (
(248,356,l),
(248,442,l),
(288,442,l),
(342,356,l),
(404,356,l),
(338,450,l),
(372,455,o),
(394,482,o),
(392,520,cs),
(394,560,o),
(360,590,o),
(312,590,cs),
(198,590,l),
(198,356,l)
);
},
{
closed = 1;
nodes = (
(248,548,l),
(302,550,ls),
(327,549,o),
(341,538,o),
(342,516,cs),
(341,494,o),
(326,482,o),
(302,480,cs),
(248,480,l)
);
}
);
width = 582;
}
);
metricLeft = O;
metricRight = O;
unicode = 174;
},
{
glyphname = trademark;
kernLeft = trademark;
lastChange = "2023-07-26 18:25:17 +0000";
layers = (
{
layerId = "1C9972D2-AAA2-4EE5-9F28-188B121D2056";
shapes = (
{
closed = 1;
nodes = (
(324,648,l),
(324,700,l),
(24,700,l),
(24,648,l),
(144,648,l),
(144,338,l),
(204,338,l),
(204,648,l)
);
},
{
closed = 1;
nodes = (
(408,586,o),
(406,632,q),
(408,632,l),
(516,340,l),
(574,340,l),
(684,630,l),
(686,630,l),
(682,566,o),
(682,520,qs),
(682,338,l),
(740,338,l),
(740,700,l),
(653,700,l),
(548,418,l),
(546,418,l),
(439,700,l),
(350,700,l),
(350,338,l),
(408,338,l),
(408,520,ls)
);
}
);
width = 764;
}
);
unicode = 8482;
},
{
glyphname = degree;
lastChange = "2023-07-25 17:28:28 +0000";
layers = (
{
layerId = "1C9972D2-AAA2-4EE5-9F28-188B121D2056";
shapes = (
{
closed = 1;
nodes = (
(246,431,o),
(308,494,o),
(308,570,cs),
(308,649,o),
(246,711,o),
(168,712,cs),
(90,711,o),
(29,649,o),
(30,570,cs),
(29,494,o),
(90,431,o),
(168,432,cs)
);
},
{
closed = 1;
nodes = (
(128,495,o),
(91,530,o),
(90,570,cs),
(91,615,o),
(128,649,o),
(168,650,cs),
(211,649,o),
(246,615,o),
(246,570,cs),
(246,530,o),
(211,495,o),
(168,494,cs)
);
}
);
width = 338;
}
);
unicode = 176;
},
{
glyphname = bar;
lastChange = "2023-07-26 18:15:43 +0000";
layers = (
{
layerId = "1C9972D2-AAA2-4EE5-9F28-188B121D2056";
shapes = (
{
closed = 1;
nodes = (
(90,0,l),
(178,0,l),
(178,700,l),
(90,700,l)
);
}
);
width = 268;
}
);
unicode = 124;
},
{
glyphname = numero;
lastChange = "2023-07-26 20:06:59 +0000";
layers = (
{
layerId = "1C9972D2-AAA2-4EE5-9F28-188B121D2056";
shapes = (
{
alignment = -1;
ref = N;
},
{
closed = 1;
nodes = (
(993,397,o),
(1062,465,o),
(1062,550,cs),
(1062,638,o),
(993,707,o),
(906,708,cs),
(819,707,o),
(753,638,o),
(754,550,cs),
(753,465,o),
(819,397,o),
(906,398,cs)
);
},
{
closed = 1;
nodes = (
(866,477,o),
(829,512,o),
(828,552,cs),
(829,597,o),
(866,631,o),
(906,632,cs),
(949,631,o),
(984,597,o),
(984,552,cs),
(984,512,o),
(949,477,o),
(906,476,cs)
);
},
{
closed = 1;
nodes = (
(769,240,l),
(1049,240,l),
(1049,318,l),
(769,318,l)
);
}
);
width = 1150;
}
);
unicode = 8470;
},
{
glyphname = cent;
lastChange = "2023-07-26 18:18:09 +0000";
layers = (
{
layerId = "1C9972D2-AAA2-4EE5-9F28-188B121D2056";
shapes = (
{
ref = c;
},
{
closed = 1;
nodes = (
(228,491,l),
(314,491,l),
(314,616,l),
(228,616,l)
);
},
{
closed = 1;
nodes = (
(228,-87,l),
(314,-87,l),
(314,38,l),
(228,38,l)
);
}
);
width = 530;
}
);
unicode = 162;
},
{
glyphname = dollar;
kernLeft = S;
kernRight = S;
lastChange = "2023-07-26 19:34:18 +0000";
layers = (
{
layerId = "1C9972D2-AAA2-4EE5-9F28-188B121D2056";
shapes = (
{
pos = (6,0);
ref = S;
},
{
closed = 1;
nodes = (
(285,-79,l),
(351,-79,l),
(351,794,l),
(285,794,l)
);
}
);
width = 620;
}
);
note = dollar;
unicode = 36;
},
{
glyphname = euro;
kernLeft = C;
kernRight = C;
lastChange = "2023-07-26 19:40:32 +0000";
layers = (
{
layerId = "1C9972D2-AAA2-4EE5-9F28-188B121D2056";
shapes = (
{
closed = 1;
nodes = (
(60,377,l),
(462,377,l),
(472,453,l),
(68,453,l)
);
},
{
closed = 1;
nodes = (
(42,237,l),
(434,237,l),
(444,315,l),
(52,315,l)
);
},
{
closed = 1;
nodes = (
(553,220,l),
(537,151,o),
(485,69,o),
(391,70,cs),
(280,71,o),
(209,185,o),
(209,352,cs),
(209,478,o),
(243,628,o),
(387,628,cs),
(500,628,o),
(532,540,o),
(553,486,c),
(643,486,l),
(618,590,o),
(539,710,o),
(391,710,cs),
(206,710,o),
(124,537,o),
(124,352,cs),
(124,175,o),
(209,-11,o),
(398,-11,cs),
(533,-11,o),
(616,88,o),
(643,220,c)
);
}
);
width = 687;
}
);
metricLeft = C;
metricRight = C;
unicode = 8364;
},
{
glyphname = ruble;
kernLeft = P;
kernRight = P;
lastChange = "2023-07-26 19:57:50 +0000";
layers = (
{
layerId = "1C9972D2-AAA2-4EE5-9F28-188B121D2056";
shapes = (
{
closed = 1;
nodes = (
(152,700,l),
(152,0,l),
(242,0,l),
(242,640,l),
(222,620,l),
(388,620,ls),
(436,620,o),
(504,583,o),
(540,529,o),
(540,486,qs),
(540,421,o),
(459,352,o),
(388,352,qs),
(61,352,l),
(61,272,l),
(400,272,ls),
(469,272,o),
(575,312,o),
(631,425,o),
(632,486,qs),
(631,548,o),
(576,640,o),
(470,700,o),
(398,700,q)
);
},
{
closed = 1;
nodes = (
(60,120,l),
(491,120,l),
(491,202,l),
(60,202,l)
);
}
);
width = 676;
}
);
metricRight = P;
unicode = 8381;
},
{
color = 1;
glyphname = sterling;
lastChange = "2023-07-26 20:02:21 +0000";
layers = (
{
layerId = "1C9972D2-AAA2-4EE5-9F28-188B121D2056";
shapes = (
{
closed = 1;
nodes = (
(554,528,l),
(541,626,o),
(442,712,o),
(330,712,c),
(198,712,o),
(102,618,o),
(102,498,c),
(98,388,o),
(173,337,o),
(177,240,c),
(186,158,o),
(138,91,o),
(50,91,c),
(50,0,l),
(526,2,l),
(526,84,l),
(162,82,l),
(162,66,l),
(225,71,o),
(265,129,o),
(265,210,c),
(265,320,o),
(190,395,o),
(190,498,c),
(190,591,o),
(258,631,o),
(330,630,c),
(415,630,o),
(454,574,o),
(466,528,c)
);
},
{
closed = 1;
nodes = (
(35,304,l),
(419,304,l),
(419,386,l),
(35,386,l)
);
}
);
width = 589;
}
);
unicode = 163;
},
{
glyphname = yen;
lastChange = "2023-07-26 20:07:40 +0000";
layers = (
{
layerId = "1C9972D2-AAA2-4EE5-9F28-188B121D2056";
shapes = (
{
closed = 1;
nodes = (
(354,0,l),
(356,306,l),
(262,306,l),
(264,0,l)
);
},
{
closed = 1;
nodes = (
(16,700,l),
(272,267,l),
(346,267,l),
(602,700,l),
(501,700,l),
(296,355,l),
(322,355,l),
(117,700,l)
);
},
{
closed = 1;
nodes = (
(107,255,l),
(502,255,l),
(502,337,l),
(107,337,l)
);
},
{
closed = 1;
nodes = (
(107,116,l),
(502,116,l),
(502,198,l),
(107,198,l)
);
}
);
width = 618;
}
);
unicode = 165;
},
{
glyphname = plus;
lastChange = "2023-07-25 16:30:49 +0000";
layers = (
{
guides = (
{
pos = (24,345);
},
{
pos = (30,273);
}
);
layerId = "1C9972D2-AAA2-4EE5-9F28-188B121D2056";
shapes = (
{
closed = 1;
nodes = (
(256,580,l),
(256,349,l),
(37,349,l),
(37,272,l),
(256,272,l),
(256,41,l),
(338,41,l),
(338,272,l),
(556,272,l),
(556,349,l),
(338,349,l),
(338,580,l)
);
}
);
width = 594;
}
);
note = plus;
unicode = 43;
},
{
glyphname = minus;
kernLeft = strokeshortcomb;
kernRight = strokeshortcomb;
lastChange = "2023-07-25 17:29:56 +0000";
layers = (
{
guides = (
{
pos = (24,426);
},
{
pos = (32,132);
}
);
layerId = "1C9972D2-AAA2-4EE5-9F28-188B121D2056";
shapes = (
{
closed = 1;
nodes = (
(516,350,l),
(37,349,l),
(37,272,l),
(516,272,l)
);
}
);
width = 554;
}
);
unicode = 8722;
},
{
glyphname = greater;
lastChange = "2023-07-26 15:35:55 +0000";
layers = (
{
layerId = "1C9972D2-AAA2-4EE5-9F28-188B121D2056";
shapes = (
{
closed = 1;
nodes = (
(36,549,l),
(36,468,l),
(377,315,l),
(36,162,l),
(36,80,l),
(461,277,l),
(461,352,l)
);
}
);
width = 501;
}
);
unicode = 62;
},
{
glyphname = asciitilde;
lastChange = "2023-07-26 20:05:08 +0000";
layers = (
{
layerId = "1C9972D2-AAA2-4EE5-9F28-188B121D2056";
shapes = (
{
closed = 1;
nodes = (
(123,213,l),
(123,267,o),
(128,299,o),
(161,299,c),
(214,299,o),
(299,214,o),
(375,214,c),
(442,214,o),
(491,275,o),
(491,387,c),
(405,387,l),
(405,339,o),
(395,296,o),
(366,296,c),
(326,296,o),
(248,381,o),
(160,381,c),
(87,381,o),
(38,327,o),
(38,214,c)
);
}
);
width = 529;
}
);
unicode = 126;
},
{
glyphname = asciicircum;
lastChange = "2023-07-26 18:22:22 +0000";
layers = (
{
layerId = "1C9972D2-AAA2-4EE5-9F28-188B121D2056";
shapes = (
{
closed = 1;
nodes = (
(491,441,l),
(346,700,l),
(246,700,l),
(101,441,l),
(176,441,l),
(296,647,l),
(416,441,l)
);
}
);
width = 600;
}
);
unicode = 94;
},
{
glyphname = percent;
kernLeft = percent;
kernRight = percent;
lastChange = "2023-07-26 18:37:58 +0000";
layers = (
{
layerId = "1C9972D2-AAA2-4EE5-9F28-188B121D2056";
shapes = (
{
closed = 1;
nodes = (
(577,700,l),
(75,0,l),
(156,0,l),
(658,700,l)
);
},
{
closed = 1;
nodes = (
(648,-13,o),
(712,52,o),
(712,130,cs),
(712,211,o),
(648,276,o),
(568,277,cs),
(488,276,o),
(425,211,o),
(426,130,cs),
(425,52,o),
(488,-13,o),
(568,-12,cs)
);
},
{
closed = 1;
nodes = (
(529,56,o),
(492,91,o),
(491,131,cs),
(492,176,o),
(529,210,o),
(569,211,cs),
(612,210,o),
(647,176,o),
(647,131,cs),
(647,91,o),
(612,56,o),
(569,55,cs)
);
},
{
closed = 1;
nodes = (
(257,422,o),
(321,487,o),
(321,565,cs),
(321,646,o),
(257,711,o),
(177,712,cs),
(97,711,o),
(34,646,o),
(35,565,cs),
(34,487,o),
(97,422,o),
(177,423,cs)
);
},
{
closed = 1;
nodes = (
(138,491,o),
(101,526,o),
(100,566,cs),
(101,611,o),
(138,645,o),
(178,646,cs),
(221,645,o),
(256,611,o),
(256,566,cs),
(256,526,o),
(221,491,o),
(178,490,cs)
);
}
);
width = 764;
}
);
note = percent;
unicode = 37;
},
{
glyphname = circumflexcomb;
lastChange = "2020-04-19 16:54:59 +0000";
layers = (
{
layerId = "1C9972D2-AAA2-4EE5-9F28-188B121D2056";
shapes = (
{
closed = 1;
nodes = (
(464,788,l),
(376,788,l),
(301,876,l),
(227,788,l),
(138,788,l),
(262,939,l),
(341,939,l)
);
}
);
width = 600;
}
);
unicode = 770;
},
{
export = 0;
glyphname = dieresiscomb;
lastChange = "2020-06-24 13:49:37 +0000";
layers = (
{
layerId = "1C9972D2-AAA2-4EE5-9F28-188B121D2056";
shapes = (
{
closed = 1;
nodes = (
(119,811,o),
(145,837,o),
(145,864,cs),
(145,892,o),
(119,917,o),
(92,917,cs),
(64,917,o),
(39,892,o),
(39,864,cs),
(39,837,o),
(64,811,o),
(92,811,cs)
);
},
{
closed = 1;
nodes = (
(310,811,o),
(335,837,o),
(335,864,cs),
(335,892,o),
(310,917,o),
(282,917,cs),
(254,917,o),
(229,892,o),
(229,864,cs),
(229,837,o),
(254,811,o),
(282,811,cs)
);
}
);
width = 370;
}
);
unicode = 776;
},
{
export = 0;
glyphname = dotaccentcomb;
lastChange = "2023-07-25 15:36:07 +0000";
layers = (
{
layerId = "1C9972D2-AAA2-4EE5-9F28-188B121D2056";
shapes = (
{
closed = 1;
nodes = (
(213,802,o),
(238,827,o),
(238,856,cs),
(238,885,o),
(213,910,o),
(184,910,cs),
(155,910,o),
(130,885,o),
(130,856,cs),
(130,827,o),
(155,802,o),
(184,802,cs)
);
}
);
width = 376;
}
);
unicode = 775;
},
{
export = 0;
glyphname = gravecomb;
lastChange = "2020-04-19 16:54:59 +0000";
layers = (
{
guides = (
{
pos = (250,788);
}
);
layerId = "1C9972D2-AAA2-4EE5-9F28-188B121D2056";
shapes = (
{
closed = 1;
nodes = (
(284,788,l),
(390,939,l),
(296,939,l),
(212,788,l)
);
}
);
width = 555;
}
);
unicode = 768;
},
{
export = 0;
glyphname = brevecomb;
lastChange = "2020-04-19 16:54:59 +0000";
layers = (
{
layerId = "1C9972D2-AAA2-4EE5-9F28-188B121D2056";
shapes = (
{
closed = 1;
nodes = (
(316,788,o),
(371,852,o),
(371,922,c),
(371,940,l),
(298,939,l),
(298,917,l),
(298,885,o),
(278,856,o),
(226,856,c),
(175,856,o),
(159,892,o),
(159,924,c),
(159,939,l),
(85,939,l),
(85,926,l),
(85,855,o),
(141,788,o),
(226,788,c)
);
}
);
width = 451;
}
);
unicode = 774;
},
{
export = 0;
glyphname = ringcomb;
lastChange = "2020-04-19 16:54:59 +0000";
layers = (
{
guides = (
{
pos = (77.727,747.406);
}
);
layerId = "1C9972D2-AAA2-4EE5-9F28-188B121D2056";
shapes = (
{
closed = 1;
nodes = (
(184,806,o),
(230,763,o),
(287,763,cs),
(344,763,o),
(390,806,o),
(390,861,cs),
(390,916,o),
(344,959,o),
(287,959,cs),
(230,959,o),
(184,916,o),
(184,861,cs)
);
},
{
closed = 1;
nodes = (
(252,882,o),
(267,897,o),
(286,897,cs),
(306,897,o),
(321,882,o),
(321,862,cs),
(321,842,o),
(306,827,o),
(286,827,cs),
(267,827,o),
(252,842,o),
(252,862,cs)
);
}
);
width = 570;
}
);
unicode = 778;
},
{
export = 0;
glyphname = tildecomb;
lastChange = "2020-04-19 16:54:59 +0000";
layers = (
{
layerId = "1C9972D2-AAA2-4EE5-9F28-188B121D2056";
shapes = (
{
closed = 1;
nodes = (
(193,787,l),
(193,830,o),
(201,851,o),
(223,851,c),
(265,851,o),
(296,788,o),
(357,788,c),
(410,788,o),
(449,837,o),
(449,926,c),
(381,926,l),
(381,888,o),
(375,861,o),
(350,861,c),
(318,861,o),
(271,926,o),
(222,926,c),
(164,926,o),
(125,878,o),
(125,788,c)
);
}
);
width = 590;
}
);
unicode = 771;
},
{
export = 0;
glyphname = macroncomb;
lastChange = "2020-04-19 16:54:59 +0000";
layers = (
{
layerId = "1C9972D2-AAA2-4EE5-9F28-188B121D2056";
shapes = (
{
closed = 1;
nodes = (
(419,819,l),
(419,891,l),
(108,891,l),
(108,819,l)
);
}
);
width = 512;
}
);
unicode = 772;
},
{
export = 0;
glyphname = ogonekcomb;
lastChange = "2020-04-19 16:54:59 +0000";
layers = (
{
layerId = "1C9972D2-AAA2-4EE5-9F28-188B121D2056";
shapes = (
{
closed = 1;
nodes = (
(218,-184,l),
(218,-114,l),
(209,-118,l),
(113,-155,o),
(110,-114,o),
(110,-94,c),
(110,-78,o),
(112,-57,o),
(154,0,c),
(159,4,l),
(92,13,l),
(57,-24,o),
(40,-67,o),
(40,-104,c),
(40,-167,o),
(98,-225,o),
(198,-192,c)
);
}
);
width = 258;
}
);
unicode = 808;
},
{
export = 0;
glyphname = strokeshortcomb;
lastChange = "2020-04-19 16:54:59 +0000";
layers = (
{
layerId = "1C9972D2-AAA2-4EE5-9F28-188B121D2056";
shapes = (
{
closed = 1;
nodes = (
(441,277,l),
(441,353,l),
(96,353,l),
(96.44,277.356,l)
);
}
);
width = 540;
}
);
unicode = 821;
},
{
export = 0;
glyphname = strokelongcomb;
lastChange = "2020-04-19 16:54:59 +0000";
layers = (
{
layerId = "1C9972D2-AAA2-4EE5-9F28-188B121D2056";
shapes = (
{
closed = 1;
nodes = (
(721,277,l),
(721,354,l),
(61,354,l),
(61.44,277.356,l)
);
}
);
width = 780;
}
);
unicode = 822;
},
{
export = 0;
glyphname = slashshortcomb;
lastChange = "2020-04-19 16:54:59 +0000";
layers = (
{
layerId = "1C9972D2-AAA2-4EE5-9F28-188B121D2056";
shapes = (
{
closed = 1;
nodes = (
(398,428.957,l),
(398,514,l),
(38,307.679,l),
(38,223,l)
);
}
);
width = 436;
}
);
unicode = 823;
},
{
export = 0;
glyphname = slashlongcomb;
lastChange = "2020-04-19 16:54:59 +0000";
layers = (
{
layerId = "1C9972D2-AAA2-4EE5-9F28-188B121D2056";
shapes = (
{
closed = 1;
nodes = (
(720,629,l),
(630,720,l),
(0,90,l),
(90,0,l)
);
}
);
width = 720;
}
);
unicode = 824;
},
{
glyphname = ring;
lastChange = "2023-07-25 17:41:58 +0000";
layers = (
{
layerId = "1C9972D2-AAA2-4EE5-9F28-188B121D2056";
shapes = (
{
closed = 1;
nodes = (
(0,806,o),
(46,763,o),
(104,764,cs),
(160,763,o),
(206,806,o),
(206,862,cs),
(206,916,o),
(160,959,o),
(104,960,cs),
(46,959,o),
(0,916,o),
(0,862,cs)
);
},
{
closed = 1;
nodes = (
(68,882,o),
(83,897,o),
(102,898,cs),
(122,897,o),
(137,882,o),
(138,862,cs),
(137,842,o),
(122,827,o),
(102,828,cs),
(83,827,o),
(68,842,o),
(68,862,cs)
);
}
);
width = 206;
}
);
note = "recipe: offset curve 30, no auto; then redrawn two circles manually for perfect fit.";
unicode = 730;
userData = {
"interface.width-adjustments" = (
-16
);
};
},
{
glyphname = tilde;
lastChange = "2023-07-25 17:42:04 +0000";
layers = (
{
layerId = "1C9972D2-AAA2-4EE5-9F28-188B121D2056";
shapes = (
{
closed = 1;
nodes = (
(68,788,l),
(68,806,l),
(67,826,o),
(77,851,o),
(98,852,c),
(111,851,o),
(127,845,o),
(154,816,c),
(173,796,o),
(203,788,o),
(232,788,c),
(289,788,o),
(323,851,o),
(324,908,c),
(324,926,l),
(256,926,l),
(256,904,l),
(255,885,o),
(243,861,o),
(224,862,c),
(206,861,o),
(194,875,o),
(178,890,c),
(155,911,o),
(125,926,o),
(96,926,c),
(39,926,o),
(-1,870,o),
(0,814,c),
(0,788,l)
);
}
);
width = 324;
}
);
unicode = 732;
userData = {
interface.gridadjust.original = "{'width': 1352, 'leftMargin': 175, 'rightMargin': 194}";
"interface.width-adjustments" = (
-16
);
};
},
{
glyphname = macron;
lastChange = "2023-07-25 17:42:11 +0000";
layers = (
{
layerId = "1C9972D2-AAA2-4EE5-9F28-188B121D2056";
shapes = (
{
closed = 1;
nodes = (
(312,820,l),
(312,892,l),
(0,892,l),
(0,820,l)
);
}
);
width = 312;
}
);
unicode = 175;
userData = {
interface.gridadjust.original = "{'width': 1310, 'leftMargin': 198, 'rightMargin': 173}";
"interface.width-adjustments" = (
-16
);
};
},
{
glyphname = cedilla;
lastChange = "2023-07-25 17:42:17 +0000";
layers = (
{
layerId = "1C9972D2-AAA2-4EE5-9F28-188B121D2056";
shapes = (
{
closed = 1;
nodes = (
(152,-200,o),
(193,-166,o),
(196,-122,cs),
(199,-86,o),
(177,-34,o),
(116,-34,c),
(136,10,l),
(70,2,l),
(38,-66,l),
(70,-98,l),
(110,-71,o),
(134,-94,o),
(132,-114,cs),
(131,-128,o),
(121,-143,o),
(88,-142,cs),
(80,-143,o),
(45,-138,o),
(28,-110,c),
(0,-158,l),
(9,-175,o),
(44,-200,o),
(98,-200,cs)
);
}
);
width = 196;
}
);
unicode = 184;
},
{
export = 0;
glyphname = debug;
lastChange = "2020-06-29 17:10:48 +0000";
layers = (
{
layerId = "1C9972D2-AAA2-4EE5-9F28-188B121D2056";
shapes = (
{
closed = 1;
nodes = (
(573,-12,o),
(690,154,o),
(690,346,c),
(690,368,l),
(691,555,o),
(567,712,o),
(370,712,cs),
(180,712,o),
(48,568,o),
(46,368,c),
(46,346,l),
(46,136,o),
(174,-12,o),
(368,-12,cs)
);
},
{
closed = 1;
nodes = (
(201,70,o),
(134,221,o),
(136,346,c),
(136,368,l),
(136,508,o),
(216,630,o),
(368,630,cs),
(524,630,o),
(598,500,o),
(600,368,c),
(600,346,ls),
(600,208,o),
(526,70,o),
(368,70,cs)
);
}
);
width = 736;
}
);
},
